SplineFontDB: 1.0
FontName: MnSymbolS-Bold6
FullName: MnSymbolS-Bold6
FamilyName: MnSymbolS-Bold6
Weight: Regular
Copyright: Generated from MetaFont bitmap by mftrace 1.1.17, http://www.xs4all.nl/~hanwen/mftrace/ 
Version: 001.001
ItalicAngle: 0
UnderlinePosition: -100
UnderlineWidth: 50
Ascent: 800
Descent: 200
NeedsXUIDChange: 1
UniqueID: 4139111
OS2TypoAscent: 0
OS2TypoAOffset: 1
OS2TypoDescent: 0
OS2TypoDOffset: 1
OS2TypoLinegap: 0
OS2WinAscent: 0
OS2WinAOffset: 1
OS2WinDescent: 0
OS2WinDOffset: 1
HheadAscent: 0
HheadAOffset: 1
HheadDescent: 0
HheadDOffset: 1
OS2Vendor: 'PfEd'
Encoding: Custom
UnicodeInterp: none
NameList: Adobe Glyph List
DisplaySize: -24
AntiAlias: 1
FitToEm: 1
WinInfo: 54 18 9
BeginPrivate: 3
lenIV 1 4
BlueValues 2 []
ForceBold 5 false
EndPrivate
BeginChars: 256 28
StartChar: A
Encoding: 65 65 2
Width: 1118
Flags: HMW
Back
175.647 118.571 m 0
 183.011 112.745 191.689 107.898 201.352 104.382 c 0
 209.776 101.315 218.945 99.2539 228.612 98.3242 c 0
 271.071 94.2402 330.125 152.668 424.344 263.501 c 0
 526.886 384.126 617.11 511.275 693.744 642.265 c 1
 792.217 642.265 l 1
 790.171 638.374 l 2
 696.334 466.217 583.633 302.989 455.217 151.929 c 0
 364.796 45.5635 267.531 -63.4717 184.266 -55.4619 c 0
 170.95 -54.1807 158.23 -51.3477 146.256 -46.9893 c 0
 132.523 -41.9902 119.766 -34.9951 108.244 -25.8789 c 0
 76.4082 -0.686523 70.3828 20.1094 64.9512 37.041 c 0
 55.4521 66.6533 69.8096 116.648 94.7275 145.897 c 0
 119.646 175.147 146.201 173.198 155.236 143.018 c 0
 157.452 135.618 164.07 127.732 175.647 118.571 c 0
947.191 241.355 m 0
 957.399 190.352 973.08 141.716 993.965 96.166 c 0
 994.521 94.9502 994.994 94.0674 995.494 93.2012 c 0
 1001.59 82.6406 1013.82 76.918 1020.92 77.9697 c 0
 1020.94 77.9727 1018.35 77.3975 1015.39 75.9023 c 1
 1061.49 99.1602 l 2
 1101.13 119.164 1139.15 117.399 1146.34 95.2197 c 0
 1153.53 73.04 1127.19 38.8047 1087.54 18.8008 c 2
 1041.44 -4.45703 l 2
 1013.72 -18.4434 988.345 -25.417 968.546 -28.3486 c 0
 943.598 -32.043 883.071 -35.3018 855.534 12.3945 c 0
 854.433 14.3027 853.39 16.249 852.161 18.9277 c 0
 829.839 67.6162 813.094 119.55 802.181 174.075 c 0
 770.166 334.029 749.854 498.549 741.383 666.595 c 0
 740.128 691.485 771.797 725.085 812.073 741.594 c 0
 852.35 758.102 886.056 751.299 887.311 726.408 c 0
 895.652 560.966 915.653 398.926 947.191 241.355 c 0
474.597 153.716 m 2
 440.406 153.716 429.841 177.907 451.015 207.715 c 0
 472.188 237.522 517.12 261.715 551.312 261.715 c 2
 913.044 261.715 l 2
 947.234 261.715 957.799 237.523 936.626 207.716 c 0
 915.453 177.908 870.52 153.716 836.329 153.716 c 2
 474.597 153.716 l 2
EndSplineSet
Fore
786 262 m 1
 769 361 756 461 748 563 c 1
 697 476 627 370 544 261 c 1
 546 262 549 262 551 262 c 2
 786 262 l 1
741 668 m 0
 741 702 801 751 853 751 c 0
 873 751 887 742 887 726 c 0
 899 502 941 187 995 93 c 0
 1001 83 1012 78 1019 78 c 1
 1061 99 l 2
 1080 108 1098 113 1113 113 c 0
 1130 113 1148 106 1148 87 c 0
 1148 66 1123 37 1088 19 c 2
 1041 -4 l 2
 1012 -19 975 -30 940 -30 c 0
 903 -30 869 -17 852 19 c 0
 833 62 817 107 807 154 c 1
 475 154 l 2
 468 154 463 154 459 156 c 1
 368 50 275 -56 193 -56 c 0
 128 -56 62 -1 62 58 c 0
 62 102 94 167 130 167 c 0
 141 167 151 159 155 143 c 0
 161 124 200 98 233 98 c 0
 275 98 332.509 156.418 424 264 c 0
 526.45 384.468 617 511 694 642 c 1
 743 642 l 1
 742 647 741 665 741 668 c 0
EndSplineSet
EndChar
StartChar: B
Encoding: 66 66 3
Width: 904
Flags: HMW
Back
150.669 199.921 m 0
 181.119 321.721 202.461 443.448 214.492 564.045 c 1
 185.245 549.289 l 2
 145.597 529.285 107.582 531.051 100.392 553.229 c 0
 93.2002 575.409 119.544 609.645 159.192 629.648 c 2
 279.601 690.397 l 2
 302.618 702.011 323.16 706.441 340.751 703.588 c 0
 358.341 700.734 366.669 691.62 365.541 676.455 c 0
 354.842 532.546 331.089 386.61 294.493 240.226 c 0
 277.395 171.831 246.594 103.198 202.242 37.4219 c 0
 182.112 7.56934 137.444 -17.4209 102.537 -18.3584 c 0
 67.6289 -19.2969 55.6348 4.16992 75.7637 34.0234 c 0
 110.049 84.8701 136.097 141.629 150.669 199.921 c 0
502.291 89.8311 m 0
 558.236 89.8311 623.236 99.3838 660.467 118.703 c 0
 660.53 118.736 615.964 92.8818 664.635 120.982 c 0
 681.366 130.643 688.504 143.235 693.131 154.173 c 0
 694.433 157.248 696.191 161.495 698.134 169.265 c 0
 705.235 197.672 704.791 227.503 689.089 254.7 c 0
 650.363 321.774 535.925 343.564 422.604 324.427 c 0
 386.229 318.283 367.282 332.253 375.46 359.187 c 0
 383.637 386.121 414.932 412.825 453.332 425.636 c 0
 578.135 467.272 660.304 497.033 706.84 523.9 c 0
 713.044 527.482 716.329 529.708 718.468 531.323 c 0
 721.235 533.415 713.521 526.413 712.139 520.888 c 1
 716.226 537.234 714.36 552.048 707.138 564.557 c 0
 687.864 597.94 638.996 606.397 598.267 598.049 c 0
 560.502 590.309 531.608 575.517 516.671 566.893 c 0
 430.551 517.171 334.319 399.53 294.493 240.226 c 0
 287.563 212.507 249.724 180.982 210.027 169.858 c 0
 170.332 158.734 143.739 172.202 150.669 199.921 c 0
 191.495 363.227 301.752 538.781 475.113 638.872 c 0
 526.771 668.697 583.689 690.958 639.448 702.387 c 0
 739.614 722.919 817.849 696.023 847.098 645.363 c 0
 860.006 623.007 864.351 594.742 855.963 561.192 c 0
 849.201 534.146 826.302 506.454 791.688 480.302 c 0
 779.587 471.158 766.3 462.258 748.396 451.921 c 0
 732.363 442.664 714.835 433.675 696.338 424.959 c 1
 756.429 408.829 803.883 379.096 829.049 335.507 c 0
 848.428 301.94 854.487 259.688 841.958 209.57 c 0
 840.356 203.165 837.227 192.314 832.21 180.458 c 0
 809.502 126.788 763.604 82.1504 706.192 49.0029 c 0
 694.024 41.9775 693.009 41.6885 689.676 39.959 c 0
 641.727 15.0771 553.908 -18.3848 425.423 -18.3857 c 0
 355.733 -18.3857 292.018 -5.7627 235.906 17.8867 c 0
 211.195 28.3008 216.974 59.4727 248.804 87.4658 c 0
 280.633 115.459 326.521 129.726 351.231 119.311 c 0
 382.392 106.179 433.491 89.8311 502.291 89.8311 c 0
EndSplineSet
Fore
332 123 m 0
 358 123 399 90 502 90 c 0
 558 90 623 99 660 119 c 1
 642 108 l 1
 642 108 647 111 665 121 c 0
 690 136 703 168 703 200 c 0
 703 301 589 331 500 331 c 0
 451 331 419 323 407 323 c 0
 386 323 374 332 374 348 c 0
 374 377 410 411 453 426 c 0
 506 443 663 494 714 528 c 1
 714 537 l 0
 714 575 679 600 628 600 c 0
 495 600 345 444 294 240 c 0
 277 172 246.927 103.05 202 37 c 0
 182.969 9.02112 138 -18 101 -18 c 0
 78 -18 66 -8 66 7 c 0
 66 35 120 79 151 200 c 0
 181 322 202 443 214 564 c 1
 185 549 l 2
 167 540 149 535 134 535 c 0
 116 535 99 542 99 561 c 0
 99 583 124 612 159 630 c 2
 280 690 l 2
 297 699 316 704 332 704 c 0
 351 704 366 697 366 679 c 0
 366 666 359 599 352 546 c 1
 512 698 671 709 704 709 c 0
 796 709 860 665 860 594 c 0
 860 557 851 498 696 425 c 1
 772 405 849 354 849 260 c 0
 849 94 653 -18 425 -18 c 0
 356 -18 292 -6 236 18 c 0
 226 22 221 30 221 40 c 0
 221 79 288 123 332 123 c 0
EndSplineSet
EndChar
StartChar: C
Encoding: 67 67 4
Width: 759
Flags: HMW
Back
550.174 531.641 m 0
 558.043 547.693 559.853 566.516 551.397 581.159 c 0
 550.354 582.966 548.74 585.4 546.298 587.771 c 0
 542.548 591.412 538.307 593.266 535.273 593.911 c 0
 528.11 595.435 521.03 596.109 514.391 596.109 c 0
 467.461 596.109 394.488 589.379 332.595 553.645 c 0
 281.2 523.972 225.953 466.101 200.209 363.123 c 0
 184.187 299.036 192.354 237.974 220.007 190.079 c 0
 261.487 118.233 332.28 95.2402 375.87 89.2881 c 0
 427.096 82.293 485.788 91.4346 541.366 123.523 c 0
 557.119 132.618 572.688 143.545 588.25 156.955 c 0
 620.516 184.758 666.294 198.466 690.433 187.554 c 0
 714.571 176.642 707.976 145.22 675.71 117.417 c 0
 647.198 92.8496 615.849 70.5537 582.924 51.5439 c 0
 480.697 -7.47656 373.122 -30.2539 282.229 -17.8418 c 0
 170.275 -2.55469 108.952 59.207 80.0469 109.272 c 0
 40.6934 177.435 39.3447 254.661 56.3848 322.818 c 0
 87.7285 448.194 168.194 554.699 291.037 625.624 c 0
 342.886 655.559 446.104 704.326 591.259 704.326 c 0
 607.421 704.326 622.382 702.716 636.207 699.775 c 0
 655.023 695.773 668.701 687.919 678.787 678.128 c 0
 683.276 673.77 687.301 668.992 691.357 661.966 c 0
 709.919 629.816 703.853 587.307 686.559 552.031 c 0
 674.758 527.959 660.671 504.076 644.229 480.61 c 0
 623.302 450.744 578.37 426.301 543.935 426.05 c 0
 509.499 425.8 498.535 449.835 519.463 479.702 c 0
 530.914 496.045 541.265 513.471 550.174 531.641 c 0
EndSplineSet
Fore
509 452 m 0
 509 478 557 519 557 562 c 0
 557 592 534 596 514 596 c 0
 227 596 192 361 192 299 c 0
 192 172 288 87 408 87 c 0
 450 87 519 97 588 157 c 0
 613 178 646 191 670 191 c 0
 692 191 705 182 705 166 c 0
 705 152 695 134 676 117 c 0
 569 25 443 -21 332 -21 c 0
 166 -21 46 84 46 241 c 0
 46 446 249 704 591 704 c 0
 687 704 703 652 703 618 c 0
 703 579 682 534 644 481 c 0
 623 451 578 426 544 426 c 0
 522 426 509 436 509 452 c 0
EndSplineSet
EndChar
StartChar: D
Encoding: 68 68 5
Width: 1087
Flags: HMW
Back
343.044 322.817 m 0
 366.597 417.026 377.947 511.212 376.652 602.81 c 0
 376.295 628.062 408.708 661.502 449.002 677.451 c 0
 489.296 693.401 522.289 685.852 522.646 660.599 c 0
 524.016 563.743 512.046 463.831 486.868 363.123 c 0
 461.691 262.415 423.523 161.751 372.937 63.3584 c 0
 357.8 33.9189 315.206 5.93848 277.861 0.90332 c 0
 240.517 -4.13281 222.492 15.6748 237.628 45.1143 c 0
 283.932 135.175 319.491 228.609 343.044 322.817 c 0
419.834 108.345 m 2
 582.773 108.345 717.639 139.579 797.191 185.509 c 0
 848.429 215.092 889.457 257.954 907.116 328.59 c 0
 922.038 388.275 916.694 432.613 896.799 467.074 c 0
 841.1 563.548 667.272 577.596 531.236 577.596 c 2
 411.215 577.596 l 2
 376.956 577.597 366.371 601.837 387.587 631.705 c 0
 408.803 661.572 453.825 685.812 488.084 685.812 c 2
 608.105 685.812 l 2
 796.158 685.812 972.848 658.577 1036.76 547.881 c 0
 1063.13 502.208 1069.39 442.687 1050.94 368.895 c 0
 1024.43 262.857 946.637 175.819 838.748 113.529 c 0
 680.041 21.8984 484.785 0.128906 342.966 0.128906 c 2
 193.674 0.128906 l 2
 159.415 0.128906 148.83 24.3691 170.045 54.2363 c 0
 191.261 84.1045 236.283 108.345 270.542 108.345 c 2
 419.834 108.345 l 2
208.567 549.498 m 0
 201.397 545.358 192.622 535.803 186.922 513.004 c 0
 179.992 485.285 142.152 453.761 102.456 442.637 c 0
 62.7607 431.512 36.168 444.98 43.0977 472.699 c 0
 49.9365 500.051 72.5957 566.967 167.01 621.477 c 0
 194.054 637.091 218.495 646.485 231.244 651.076 c 0
 323.872 684.437 430.883 685.812 488.083 685.812 c 0
 522.342 685.812 532.928 661.572 511.712 631.704 c 0
 490.496 601.837 445.474 577.597 411.215 577.596 c 0
 324.269 577.596 262.364 570.177 224.278 556.46 c 0
 216.519 553.666 211.418 551.144 208.567 549.498 c 0
EndSplineSet
Fore
1062 448 m 0
 1062 220 811 0 343 0 c 2
 194 0 l 2
 171 0 159 10 159 26 c 0
 159 59 217 107 268 108 c 1
 342 273 375 433 377 577 c 1
 195 572 194 539 187 513 c 0
 178 476 118 439 77 439 c 0
 55 439 42 448 42 464 c 0
 42 500 92 601 231 651 c 0
 324 684 431 686 488 686 c 2
 608 686 l 2
 816 686 1062 653 1062 448 c 0
915 386 m 0
 915 501 833 578 531 578 c 2
 521 578 l 1
 512 433 473 273 395 108 c 1
 420 108 l 2
 583 108 718 140 797 186 c 0
 885 236 915 319 915 386 c 0
EndSplineSet
EndChar
StartChar: E
Encoding: 69 69 6
Width: 747
Flags: HMW
Back
580.807 580.221 m 0
 575.698 589.069 566.925 591.991 562.331 592.443 c 0
 537.432 594.894 512.238 596.109 486.864 596.109 c 0
 432.082 596.109 388.914 586.625 364.703 576.823 c 0
 359.054 574.537 354.826 572.411 351.822 570.677 c 0
 344.371 566.374 333.724 558.533 327.564 533.896 c 0
 322.357 513.068 325.677 497.961 332.145 486.758 c 0
 354.263 448.448 425.619 431.378 525.235 431.378 c 0
 559.494 431.378 570.08 407.138 548.864 377.27 c 0
 527.648 347.402 482.626 323.161 448.367 323.161 c 0
 355.532 323.161 232.143 336.742 192.185 405.951 c 0
 176.16 433.706 176.48 464.553 183.74 493.592 c 0
 198.817 553.898 246.489 605.835 310.265 642.656 c 0
 327.32 652.503 344.514 660.678 361.326 667.484 c 0
 441.627 699.992 519.949 704.326 563.732 704.326 c 0
 593.654 704.326 623.034 702.893 651.8 700.062 c 0
 689.299 696.371 710.562 678.704 720.768 661.027 c 0
 733.913 638.259 734.562 604.879 708.019 567.378 c 0
 686.878 537.51 641.879 513.216 607.574 513.15 c 0
 573.269 513.085 562.584 537.271 583.725 567.14 c 1
 582.062 564.792 586.969 569.548 580.807 580.221 c 0
280.375 283.687 m 0
 243.621 262.466 220.415 232.105 210.512 192.492 c 0
 205.273 171.538 208.927 156.439 215.44 145.158 c 0
 236.545 108.604 303.883 89.8311 386.703 89.8311 c 0
 431.392 89.8311 483.068 100.85 534.432 130.505 c 0
 548.911 138.864 563.188 148.58 577.38 159.993 c 0
 611.06 187.078 656.349 198.842 678.473 186.252 c 0
 700.596 173.663 691.218 141.463 657.538 114.379 c 0
 631.974 93.8193 604.537 75.0068 575.989 58.5254 c 0
 482.822 4.73438 389.28 -18.3857 309.835 -18.3857 c 0
 220.058 -18.3848 112.838 -0.354492 75.4805 64.3516 c 0
 59.3877 92.2246 59.4014 123.044 66.6875 152.188 c 0
 87.2783 234.548 151.936 305.504 238.817 355.666 c 0
 334.541 410.932 440.948 431.378 525.235 431.378 c 0
 559.494 431.378 570.08 407.138 548.864 377.27 c 0
 527.648 347.402 482.626 323.161 448.367 323.161 c 0
 367.568 323.161 308.992 300.209 280.375 283.687 c 0
EndSplineSet
Fore
560 406 m 0
 560 373 500 323 448 323 c 0
 368 323 309 300 280 284 c 0
 233 256 208 210 208 174 c 0
 208 107 309 90 387 90 c 0
 463 90 528.706 121.365 577 160 c 0
 602 180 633 191 656 191 c 0
 677 191 690 182 690 166 c 0
 690 151 679 132 658 114 c 0
 579 51 452 -18 310 -18 c 0
 207 -18 62 7 62 116 c 0
 62 165 96 276 245 359 c 1
 201 382 179 415 179 457 c 0
 179 564 312 704 564 704 c 0
 657 704 699 698 721 661 c 0
 727 650 730 639 730 627 c 0
 730 573 669 513 607 513 c 0
 585 513 573 523 573 539 c 0
 573 563 591 563 581 580 c 0
 575 590 569 596 487 596 c 0
 426 596 374 584 352 571 c 0
 334 560 325 537 325 516 c 0
 325 458 397 431 525 431 c 0
 548 431 560 421 560 406 c 0
EndSplineSet
EndChar
StartChar: F
Encoding: 70 70 7
Width: 975
Flags: HMW
Back
288.795 75.8154 m 0
 292.092 75.9385 290.058 75.7197 291.628 76.1289 c 0
 291.633 76.1309 289.996 75.3867 290.508 75.6816 c 0
 293.332 77.3125 299.717 82.9883 305.734 90.3232 c 0
 307.572 92.5625 310.543 96.332 313.992 101.604 c 0
 359.731 171.505 398.946 244.914 430.6 320.406 c 0
 470.052 414.499 496.079 511.195 507.388 606.884 c 0
 510.524 633.424 545.674 666.083 585.848 679.784 c 0
 626.021 693.484 656.08 683.065 652.944 656.525 c 0
 640.842 554.119 612.967 449.931 569.817 347.021 c 0
 535.485 265.14 492.624 184.679 441.717 106.879 c 0
 434.7 96.1553 428.519 87.9922 421.942 79.9775 c 0
 402.509 56.292 372.24 26.8975 332.065 3.70215 c 0
 306.057 -11.3135 282.14 -20.2734 262.212 -25.4668 c 0
 248.316 -29.0879 233.944 -31.6826 217.43 -32.2969 c 0
 131.335 -35.4971 74.4346 -4.25781 43.6895 22.5674 c 0
 25.6973 38.2666 40.3564 71.6299 76.4121 97.0391 c 0
 112.468 122.448 156.334 130.328 174.326 114.629 c 0
 193.152 98.2031 231.35 73.6807 288.795 75.8154 c 0
937.474 579.792 m 0
 937.397 579.924 944.84 573.169 944.82 573.175 c 0
 933.104 577.229 884.079 577.596 843.623 577.596 c 2
 466.998 577.596 l 2
 418.659 577.596 379.824 568.235 358.312 559.472 c 0
 352.554 557.126 348.093 554.889 344.754 552.961 c 0
 339.836 550.122 324.64 541.806 317.439 513.004 c 0
 310.51 485.285 272.669 453.761 232.974 442.637 c 0
 193.277 431.512 166.686 444.98 173.615 472.699 c 0
 188.576 532.543 236.508 586.438 303.196 624.94 c 0
 320.217 634.768 337.435 643.004 354.342 649.892 c 0
 429.439 680.485 503.081 685.812 543.867 685.812 c 2
 920.492 685.812 l 2
 978.703 685.812 1030.04 685.178 1055.74 676.287 c 0
 1069.77 671.431 1074.99 664.831 1077.43 660.599 c 0
 1079.55 656.932 1081.04 642.604 1079.76 637.494 c 0
 1072.83 609.775 1034.99 578.251 995.297 567.127 c 0
 955.602 556.003 929.01 569.472 935.94 597.19 c 0
 935.94 597.191 938.291 578.377 937.474 579.792 c 0
814.973 279.714 m 1
 461.851 279.714 l 2
 427.66 279.713 417.096 303.905 438.269 333.713 c 0
 459.441 363.521 504.375 387.713 538.565 387.713 c 2
 891.688 387.713 l 2
 918.212 387.713 930.464 375.286 925.1 353.825 c 2
 921.049 337.625 l 2
 914.134 309.962 876.368 278.5 836.752 267.398 c 0
 797.136 256.297 770.596 269.737 777.511 297.4 c 2
 781.561 313.602 l 1
 802.113 327.433 826.278 331.067 835.5 321.715 c 0
 844.723 312.361 835.525 293.545 814.973 279.714 c 1
EndSplineSet
Fore
36 40 m 0
 36 73 96 123 148 123 c 0
 159 123 168 120 174 115 c 0
 213 81 261 75 282 75 c 0
 286 75 289 76 291 76 c 1
 312 90 384 208 431 320 c 0
 466 405 491 492 503 578 c 1
 467 578 l 2
 421 578 373 569 345 553 c 0
 340 550 325 542 317 513 c 0
 308 476 249 439 207 439 c 0
 186 439 173 448 173 464 c 0
 173 467 173 470 174 473 c 0
 202 588 356 686 544 686 c 2
 920 686 l 2
 1061 686 1080 677 1080 643 c 0
 1080 611 1019 563 969 563 c 0
 956 563 945 567 940 574 c 1
 922 577 880 578 844 578 c 2
 640 578 l 1
 627 510 608 446 586 388 c 1
 892 388 l 2
 914 388 926 379 926 363 c 0
 926 360 926 357 925 354 c 2
 921 338 l 2
 911.765 301.058 853 264 811 264 c 0
 794 264 782 269 778 280 c 1
 540 280 l 1
 489 172 437 98 422 80 c 0
 357 0 274 -33 199 -33 c 0
 139 -33 83 -12 44 23 c 1
 38 27 36 33 36 40 c 0
EndSplineSet
EndChar
StartChar: G
Encoding: 71 71 8
Width: 829
Flags: HMW
Back
635.12 548.223 m 0
 636.703 550.413 641.057 562.421 634.06 574.539 c 0
 632.631 577.015 630.166 580.432 626.142 583.287 c 0
 623.538 585.134 620.623 586.55 617.287 587.261 c 0
 589.395 593.204 560.638 596.109 531.692 596.109 c 0
 490.073 596.109 398.286 591.829 330.348 552.604 c 0
 274.488 520.354 243.524 467.179 228.399 406.68 c 0
 215.74 356.043 222.414 308.615 244.501 270.358 c 0
 277.233 213.664 340.466 180.797 410.357 176.838 c 0
 462.965 173.857 508.585 188.153 540.563 206.616 c 0
 610.467 246.976 625.988 311.506 628.815 322.817 c 0
 635.746 350.536 673.587 382.062 713.282 393.186 c 0
 752.978 404.31 779.57 390.842 772.641 363.123 c 0
 750.016 272.625 678.852 190.484 582.121 134.637 c 0
 497.372 85.707 405.165 64.3418 325.9 68.832 c 0
 221.287 74.7578 143.054 122.847 104.541 189.552 c 0
 82.1416 228.349 64.959 287.91 84.5752 366.374 c 0
 94.1934 404.846 129.809 532.795 288.79 624.583 c 0
 343.661 656.264 449.163 704.326 608.561 704.325 c 0
 647.009 704.325 683.663 700.488 718.253 693.119 c 0
 732.417 690.101 743.699 684.934 752.819 678.462 c 0
 761.945 671.987 768.923 664.175 774.02 655.346 c 0
 789.144 629.15 789.548 590.165 758.436 547.091 c 0
 742.098 524.473 722.408 502.239 699.149 481.15 c 0
 667.984 452.892 621.96 437.807 596.416 447.478 c 0
 570.873 457.148 575.436 487.932 606.602 516.19 c 0
 616.301 524.985 626.093 535.725 635.12 548.223 c 0
430.633 -7.36719 m 0
 440.531 -7.36719 455.446 -6.53027 468.095 0.772461 c 0
 479.804 7.53223 485.129 13.7617 485.956 14.5332 c 0
 534.229 59.5361 588.499 161.55 628.815 322.817 c 0
 635.745 350.536 673.586 382.062 713.282 393.186 c 0
 752.978 404.31 779.57 390.842 772.641 363.123 c 0
 721.797 159.751 651.258 47.2832 581.161 -18.0654 c 0
 560.946 -36.9102 537.059 -55.3838 509.652 -71.207 c 0
 489.438 -82.8779 428.384 -115.583 353.765 -115.583 c 0
 281.482 -115.583 210.643 -111.102 141.596 -102.22 c 0
 110.489 -98.2178 106.031 -70.9482 131.646 -41.3496 c 0
 157.26 -11.752 203.295 9.02246 234.401 5.02051 c 0
 298.682 -3.24805 364.237 -7.36719 430.633 -7.36719 c 0
EndSplineSet
Fore
226 6 m 0
 232 6 320 -7 431 -7 c 0
 467 -7 481 10 486 15 c 0
 510 37 535 72 559 122 c 1
 492 88 418 68 347 68 c 0
 193 68 76 161 76 299 c 0
 76 364 109 521 289 625 c 0
 344 656 449 704 609 704 c 0
 711 704 784 687 784 617 c 0
 784 570 742 520 699 481 c 0
 674 459 640 445 614 445 c 0
 593 445 580 454 580 470 c 0
 580 508 638 530 638 564 c 0
 638 579 624 586 617 587 c 0
 589 593 561 596 532 596 c 0
 301 596 248 486 228 407 c 0
 224 390 222 373 222 357 c 0
 222 249 312 176 424 176 c 0
 503 176 602 216 629 323 c 0
 638.317 359.922 697 397 739 397 c 0
 760 397 774 388 774 372 c 0
 774 369 773 366 773 363 c 1
 699 70 587 -27 510 -71 c 0
 489 -83 428 -116 354 -116 c 0
 281 -116 211 -111 142 -102 c 0
 124 -100 115 -90 115 -77 c 0
 115 -44 175 6 226 6 c 0
EndSplineSet
EndChar
StartChar: H
Encoding: 72 72 9
Width: 1211
Flags: HMW
Back
390.841 364.106 m 0
 404.892 420.31 413.003 476.539 414.982 531.737 c 0
 415.311 540.894 413.191 549.499 409.082 556.618 c 0
 402.004 568.877 391.934 573.593 385.388 575.693 c 0
 383.683 576.24 385.317 575.954 381.087 576.822 c 0
 378.67 577.318 381.573 576.985 377.139 577.425 c 0
 375.918 577.546 379.729 577.599 373.744 577.596 c 0
 301.06 577.562 263.39 562.554 241.07 549.667 c 0
 222.47 538.928 200.389 521.589 173.698 488.418 c 0
 149.747 458.651 104.009 436.479 71.6035 438.926 c 0
 39.1982 441.373 32.3379 467.518 56.2891 497.285 c 0
 95.3213 545.796 143.015 589.027 199.513 621.646 c 0
 285.937 671.544 373.113 685.776 450.547 685.812 c 0
 456.532 685.814 463.584 685.343 466.686 685.035 c 0
 471.777 684.531 478.55 683.401 481.357 682.825 c 0
 485.588 681.958 492.122 680.166 494.656 679.354 c 0
 519.931 671.244 537.928 656.674 549.042 637.425 c 0
 557.295 623.129 561.645 606.129 560.943 586.59 c 0
 558.805 526.949 550.045 465.929 534.665 404.412 c 0
 502.864 277.209 458.278 150.099 401.417 24.8789 c 0
 388.181 -4.27051 346.549 -33.2129 308.489 -39.7246 c 0
 270.43 -46.2363 250.282 -27.8633 263.519 1.28613 c 0
 317.594 120.37 360.307 241.969 390.841 364.106 c 0
927.142 271.77 m 0
 912.595 213.579 904.113 155.369 901.892 98.1992 c 0
 901.528 88.8672 903.679 80.0459 907.825 72.8633 c 0
 910.313 68.5547 914.718 62.6572 922.281 58.2178 c 0
 927.873 54.9355 934.296 52.998 940.288 53.2188 c 0
 964.178 54.0996 1006.49 57.2119 1023.09 63.6299 c 0
 1023.1 63.6318 1019.25 61.625 1019.49 61.7656 c 0
 1019.5 61.7676 1000.82 43.0801 1001.72 46.6777 c 0
 1008.65 74.3965 1046.49 105.921 1086.18 117.046 c 0
 1125.88 128.17 1152.47 114.702 1145.54 86.9834 c 0
 1136.45 50.6221 1106.12 15.8086 1061.05 -10.2139 c 0
 1049.92 -16.6436 1037.76 -22.7021 1022.26 -28.6973 c 0
 962.484 -51.8076 889.849 -54.1221 868.881 -54.8955 c 0
 844.385 -55.7988 819.985 -51.502 799.582 -39.5264 c 0
 785.797 -31.4355 775.259 -20.748 767.865 -7.94336 c 0
 759.506 6.53613 755.169 23.7656 755.938 43.5293 c 0
 758.33 105.092 767.46 168.033 783.317 231.465 c 0
 815.841 361.557 861.134 491.552 918.696 619.693 c 0
 931.778 648.816 973.328 677.832 1011.44 684.462 c 0
 1049.55 691.092 1069.87 672.837 1056.79 643.715 c 0
 1001.91 521.537 958.429 396.915 927.142 271.77 c 0
255.801 254.673 m 2
 221.61 254.673 211.045 278.865 232.219 308.673 c 0
 253.392 338.48 298.325 362.672 332.516 362.672 c 2
 835.516 362.671 l 2
 869.706 362.671 880.271 338.479 859.098 308.671 c 0
 837.924 278.863 792.991 254.672 758.801 254.672 c 2
 255.801 254.673 l 2
EndSplineSet
Fore
259 -15 m 0
 259 4 306 80 360 255 c 1
 256 255 l 2
 234 255 221 265 221 280 c 0
 221 313 281 363 333 363 c 2
 390 363 l 1
 406 430 415 500 415 534 c 0
 415 564 391 578 374 578 c 0
 259 578 216 541 174 488 c 0
 151 460 109 439 77 439 c 0
 49 439 42 454 42 464 c 0
 42 474 47 485 56 497 c 0
 179 650 341 687 434 687 c 0
 543 687 561 629 561 591 c 0
 561 545 550 463 524 363 c 1
 820 363 l 1
 861 490 907 594 919 620 c 0
 933 653 985 686 1026 686 c 0
 1048 686 1061 676 1061 660 c 0
 1061 655 1059 650 1057 644 c 0
 924 348 902 149 902 96 c 0
 902 71 921 53 939 53 c 0
 951 53 986 56 1007 59 c 1
 1022 87 1070 121 1112 121 c 0
 1133 121 1147 111 1147 95 c 0
 1147 71 1115 7 1022 -29 c 0
 1011 -33 938 -55 873 -55 c 0
 774 -55 756 2 756 39 c 0
 756 90 769 175 791 260 c 1
 780 257 769 255 759 255 c 2
 492 255 l 1
 454 140 412 49 401 25 c 0
 387 -8 335 -41 294 -41 c 0
 272 -41 259 -31 259 -15 c 0
EndSplineSet
EndChar
StartChar: I
Encoding: 73 73 10
Width: 807
Flags: HMW
Back
441.805 577.704 m 2
 326.846 577.704 249.616 575.934 198.158 561.252 c 0
 185.103 557.527 200.987 565.479 187.869 557.906 c 0
 187.865 557.903 202.095 572.681 201.141 568.866 c 0
 194.225 541.203 156.459 509.742 116.843 498.64 c 0
 77.2266 487.538 50.6865 500.979 57.6025 528.644 c 0
 67.3623 567.68 100.952 603.506 146.396 629.742 c 0
 167.436 641.89 192.822 652.812 222.09 661.163 c 0
 284.463 678.959 353.162 685.703 518.519 685.703 c 2
 841.095 685.703 l 2
 875.285 685.703 885.85 661.512 864.677 631.703 c 0
 843.504 601.896 798.57 577.704 764.38 577.704 c 2
 441.805 577.704 l 2
602.226 579.827 m 1
 601.868 579.621 604.633 581.395 604.582 581.355 c 0
 573.662 557.674 540.908 457.23 517.381 363.123 c 0
 476.104 198.014 409.148 124.804 396.271 110.208 c 0
 376.375 87.6572 347.809 60.6885 309.282 38.4453 c 0
 291.988 28.46 239.796 0.128906 176.392 0.128906 c 0
 142.133 0.128906 131.547 24.3691 152.763 54.2363 c 0
 173.979 84.1045 219.001 108.345 253.259 108.345 c 0
 258.621 108.345 266.281 109.591 267.726 110.425 c 0
 268.558 110.905 275.133 115.165 284.915 126.253 c 0
 317.688 163.398 351.304 233.808 373.557 322.818 c 0
 406.953 456.404 441.977 563.926 529.823 631.208 c 0
 534.707 634.948 545.915 643.289 560.668 651.807 c 0
 590.775 669.189 620.79 678.6 643.268 682.564 c 0
 654.723 684.585 666.16 685.812 679.883 685.812 c 0
 714.142 685.812 724.728 661.572 703.512 631.704 c 0
 682.297 601.837 637.273 577.597 603.016 577.596 c 0
 598.514 577.596 596.645 577.184 596.348 577.132 c 0
 595.059 576.904 598.985 577.957 602.226 579.827 c 1
616.09 108.236 m 2
 642.102 108.236 669.241 108.381 683.661 111.816 c 0
 685.688 112.299 679.072 110.299 672.465 106.484 c 1
 672.72 106.696 646.587 82.5244 646.588 82.5254 c 0
 647.212 83.792 646.122 81 646.566 82.7764 c 0
 653.482 110.439 691.248 141.9 730.865 153.002 c 0
 770.481 164.104 797.021 150.661 790.104 122.998 c 0
 789.122 119.073 784.635 106.794 782.589 102.643 c 0
 764.139 65.209 736.289 53.2705 713.938 34.6475 c 1
 690.203 20.9443 667.676 13.5557 649.499 9.22559 c 0
 626.227 3.68066 601.619 0.237305 539.376 0.237305 c 2
 55.498 0.237305 l 2
 21.3076 0.237305 10.7432 24.4287 31.916 54.2363 c 0
 53.0898 84.0449 98.0225 108.236 132.213 108.236 c 2
 616.09 108.236 l 2
EndSplineSet
Fore
21 26 m 0
 21 59 81 108 132 108 c 2
 249 108 l 2
 251 108 252 108 253 108 c 0
 269 108 273 112 285 126 c 0
 383 238 373 445 476 578 c 1
 442 578 l 2
 441 578 434 578 423 578 c 0
 374 578 245 576 199 562 c 1
 184 527 129 495 91 495 c 0
 70 495 57 504 57 520 c 0
 57 548 96.0772 624.732 222 661 c 0
 284.038 678.868 353 686 519 686 c 2
 673 686 l 2
 676 686 678 686 680 686 c 0
 681 686 683 686 684 686 c 2
 841 686 l 2
 863 686 876 675 876 660 c 0
 876 627 816 578 764 578 c 2
 607 578 l 2
 606 578 604 578 603 578 c 0
 600 578 l 1
 571 548 540 453 517 363 c 0
 486.374 243.158 442 163 394 108 c 1
 616 108 l 2
 632 108 648 108 661 109 c 1
 687 139 728 157 757 157 c 0
 778 157 791 147 791 131 c 0
 791 83 718 38 714 35 c 0
 668 8 623 0 539 0 c 0
 421 0 302 0 183 0 c 0
 181 0 178 0 176 0 c 0
 173 0 l 2
 55 0 l 2
 33 0 21 10 21 26 c 0
EndSplineSet
EndChar
StartChar: J
Encoding: 74 74 11
Width: 949
Flags: HMW
Back
699.501 577.596 m 2
 622.053 577.596 559.28 558.25 524.348 538.081 c 0
 505.656 527.289 495.748 516.983 490.743 511.379 c 0
 479.725 499.04 468.38 481.13 462.066 455.874 c 0
 455.137 428.155 417.296 396.63 377.601 385.506 c 0
 337.904 374.382 311.312 387.85 318.241 415.568 c 0
 327.95 454.402 348.254 492.563 380.247 528.394 c 0
 408.162 559.655 444.559 587.987 482.79 610.061 c 0
 533.388 639.273 636.714 685.812 776.37 685.812 c 2
 1052.77 685.812 l 2
 1087.02 685.812 1097.61 661.571 1076.39 631.704 c 0
 1055.18 601.836 1010.16 577.596 975.896 577.596 c 2
 699.501 577.596 l 2
231.649 57.7021 m 0
 260.398 7.9082 343.449 -7.36719 406.434 -7.36719 c 0
 437.343 -7.36719 486.717 -1.02344 528.689 23.21 c 0
 585.293 55.8896 597.186 104.556 600.305 117.033 c 0
 665.898 379.407 727.175 499.094 809.98 579.908 c 0
 831.768 601.172 858.056 622.126 888.678 639.807 c 0
 942.755 671.028 998.967 685.812 1052.77 685.812 c 0
 1087.02 685.812 1097.61 661.571 1076.39 631.704 c 0
 1055.18 601.836 1010.16 577.596 975.896 577.596 c 0
 951.538 577.596 938.048 572.338 930.235 567.826 c 0
 925.254 564.951 918.443 560.157 909.377 551.309 c 0
 839.5 483.111 788.5 334.821 744.129 157.338 c 0
 724.02 76.8994 659.716 2.88574 570.247 -48.7695 c 0
 536.529 -68.2373 445.499 -115.583 329.565 -115.583 c 0
 230.816 -115.584 130.063 -89.5703 91.6895 -23.1045 c 0
 73.2939 8.75684 72.8818 43.7607 81.2031 77.0449 c 0
 88.1328 104.764 125.974 136.289 165.669 147.413 c 0
 205.364 158.537 231.957 145.069 225.027 117.351 c 0
 220.074 97.5371 220.655 76.7441 231.649 57.7021 c 0
EndSplineSet
Fore
226 126 m 0
 226 116 222 113 222 95 c 0
 222 27 306 -7 406 -7 c 0
 474 -7 575.148 19.2126 600 117 c 0
 646 298 699 469 808 578 c 1
 700 578 l 2
 618 578 529 555 491 511 c 0
 480 499 468.077 480.982 462 456 c 0
 453 419 393 382 352 382 c 0
 331 382 317 391 317 407 c 0
 317 410 318 413 318 416 c 1
 354 561 546 686 776 686 c 2
 1053 686 l 2
 1075 686 1087 676 1087 660 c 0
 1087 627 1028 578 976 578 c 0
 936 578 921.044 562.956 909 551 c 0
 840.249 482.749 788 335 744 157 c 0
 707.915 11.0209 519 -116 330 -116 c 0
 217 -116 76 -78 76 37 c 0
 76 49 78 63 81 77 c 0
 90 114 150 151 192 151 c 0
 213 151 226 142 226 126 c 0
EndSplineSet
EndChar
StartChar: K
Encoding: 75 75 12
Width: 1051
Flags: HMW
Back
196.769 384.271 m 0
 212.133 445.73 220.289 507.219 221.002 567.324 c 1
 185.257 549.289 l 2
 145.608 529.285 107.594 531.051 100.403 553.229 c 0
 93.2119 575.409 119.556 609.645 159.204 629.648 c 2
 279.612 690.397 l 2
 301.498 701.439 320.999 705.931 338.343 703.924 c 0
 355.687 701.916 364.732 694.121 365.584 680.447 c 0
 370.729 597.896 362.384 511.743 340.593 424.576 c 0
 308.992 298.176 264.603 171.867 207.936 47.458 c 0
 194.654 18.3008 153 -10.6201 114.955 -17.0977 c 0
 76.9111 -23.5752 56.8125 -5.16895 70.0938 23.9873 c 0
 123.943 142.212 166.442 262.969 196.769 384.271 c 0
837.089 605.94 m 1
 837.085 605.944 831.2 609.405 800.741 609.405 c 0
 777.781 609.405 669.588 578.399 548.937 508.741 c 0
 503.391 482.445 475.854 461.302 462.391 447.078 c 0
 453.146 437.311 456.133 439.646 456.132 439.638 c 0
 455.72 435.728 456.279 436.777 456.4 435.493 c 0
 456.835 430.878 456.688 432.86 456.997 431.006 c 0
 458.841 419.926 468.019 386.163 501.276 328.556 c 0
 581.426 189.727 688.096 88.7051 736.406 77.2637 c 0
 741.078 76.1572 728.407 76.5352 740.891 76.5352 c 0
 795.134 76.5361 832.296 82.0029 854.074 90.083 c 0
 860.999 92.6523 850.048 88.2197 858.354 91.79 c 0
 862.784 93.6934 853.371 89.1836 861.825 93.3926 c 0
 862.087 93.5225 830.445 75.1602 864.505 94.8242 c 0
 869.143 97.502 873.188 101.167 875.899 112.015 c 0
 882.365 137.879 912.833 161.853 943.907 165.528 c 0
 974.981 169.203 994.953 151.195 988.487 125.331 c 0
 977.563 81.6318 945.629 46.2617 905.812 23.2744 c 0
 897.298 18.3574 895.635 17.7139 893.049 16.4268 c 0
 884.595 12.2178 882.856 11.623 880.282 10.5166 c 0
 871.976 6.94727 870.144 6.39062 867.595 5.44434 c 0
 835.591 -6.42969 787.891 -18.1162 701.856 -18.1172 c 0
 690.944 -18.1172 681.438 -16.7266 672.61 -14.6367 c 0
 564.383 10.9941 439.734 187.291 393.952 266.592 c 0
 361.29 323.166 347.27 361.734 342.858 388.24 c 0
 342.55 390.095 342.215 391.568 341.69 397.134 c 0
 340.646 408.212 339.311 402.422 343.544 426.321 c 0
 347.617 449.323 365.488 470.85 380.917 487.15 c 0
 400.997 508.367 439.687 541.065 507.629 580.291 c 0
 586.778 625.989 752.969 704.058 839.775 704.058 c 0
 923.48 704.058 931.072 680.886 944.413 667.905 c 1
 952.462 653.964 952.293 637.75 948.855 624.001 c 0
 942.39 598.137 911.923 574.163 880.848 570.487 c 0
 849.773 566.812 829.802 584.82 836.268 610.685 c 1
 836.229 610.532 836.206 607.469 837.089 605.94 c 1
EndSplineSet
Fore
951 642 m 0
 951 596 906 570 873 570 c 0
 850 570 835 583 835 601 c 0
 835 607 l 1
 832 608 823 609 801 609 c 0
 747 609 525 513 462 447 c 0
 455 439 455 443 457 431 c 0
 475 323 674 77 741 77 c 0
 797 77 835.577 82.2266 857.546 91.0538 c 2
 865 95 l 1
 869 98 873 101 876 112 c 0
 883 140 918 166 952 166 c 0
 975 166 990 153 990 135 c 0
 990 111 961 40 868 5 c 0
 836 -6 788 -18 702 -18 c 0
 556 -18 341 306 341 407 c 0
 341 441 361.344 495.403 508 580 c 0
 587.186 625.678 753 704 840 704 c 0
 923 704 931 681 944 668 c 1
 949 660 951 650 951 642 c 0
134 535 m 0
 116 535 99 542 99 561 c 0
 99 583 124 612 159 630 c 2
 280 690 l 2
 300.033 699.934 317 705 331 705 c 0
 352 705 365 695 366 680 c 0
 367 665 367 649 367 633 c 0
 367 565 358 495 341 425 c 0
 309 298 265 172 208 47 c 0
 193 15 141 -18 101 -18 c 0
 79 -18 66 -9 66 7 c 0
 66 12 67 18 70 24 c 0
 89 65 218 349 221 567 c 1
 185 549 l 2
 167 540 149 535 134 535 c 0
EndSplineSet
EndChar
StartChar: L
Encoding: 76 76 13
Width: 953
Flags: HMW
Back
789.362 27.1826 m 0
 776.5 19.7568 762.414 12.6611 744.633 5.68457 c 0
 732.191 0.802734 682.89 -18.1387 618.969 -18.1387 c 0
 478.444 -18.1387 341.445 13.1777 211.729 13.1777 c 0
 200.117 13.1777 181.308 11.1299 165.251 1.98535 c 0
 123.351 -21.8789 80.4961 -24.9502 69.5928 -4.87012 c 0
 58.6904 15.21 83.8486 50.875 125.749 74.7393 c 0
 148.979 87.9688 221.215 126.179 302.46 126.179 c 0
 442.984 126.18 579.984 94.8633 709.699 94.8623 c 0
 731.836 94.8623 747.197 98.9521 751.109 100.487 c 0
 751.141 100.499 747.922 98.8252 747.98 98.8584 c 0
 747.987 98.8623 733.062 79.2666 736.717 93.8838 c 0
 743.724 121.91 784.086 155.762 826.812 169.445 c 0
 869.536 183.128 898.525 171.488 891.519 143.462 c 0
 885.911 121.034 865.543 71.165 789.362 27.1826 c 0
142.954 83.2451 m 0
 143.069 83.3105 141.088 82.0273 141.134 82.0635 c 0
 161.27 97.6445 185.111 152.533 204.74 231.048 c 0
 218.506 286.11 271.329 479.722 419.392 603.969 c 0
 439.503 620.845 462.302 637.236 487.417 651.736 c 0
 550.51 688.163 612.28 704.127 667.479 704.127 c 0
 727.364 704.126 770.402 680.632 789.393 647.741 c 0
 800.736 628.093 804.965 603.464 797.491 573.565 c 0
 790.479 545.517 750.084 511.637 707.322 497.941 c 0
 664.562 484.246 635.548 495.896 642.56 523.944 c 0
 645.733 536.639 644.225 549.445 637.953 560.308 c 0
 625.338 582.159 598.702 591.031 576.671 591.031 c 0
 548.767 591.031 533.906 582.93 528.833 580.002 c 0
 524.192 577.322 518.367 573.394 511.044 567.248 c 0
 455.03 520.244 392.912 413.633 359.671 280.668 c 0
 336.463 187.833 307.264 102.652 222.681 37.2012 c 0
 215.616 31.7344 202.497 21.9746 184.371 11.5098 c 0
 173.278 5.10547 161.402 -1.07617 146.066 -7.53125 c 0
 102.735 -25.7676 67.3145 -20.0088 67.002 5.32324 c 0
 66.6895 30.6562 101.604 66.0166 144.935 84.2539 c 0
 144.938 84.2549 142.953 83.2441 142.954 83.2451 c 0
EndSplineSet
Fore
642 516 m 0
 642 524 644 526 644 537 c 0
 644 568 614 591 577 591 c 0
 544 591 527 581 511 567 c 0
 455 520 393 414 360 281 c 0
 348 235 333 179 302 126 c 1
 443 126 580 95 710 95 c 0
 721 95 731 96 738 97 c 1
 749 131 811 175 859 175 c 0
 880 175 893 167 893 151 c 0
 893 149 892 146 892 143 c 1
 873 69 761 -18 619 -18 c 0
 478 -18 341 13 212 13 c 0
 166 13 148 -18 100 -18 c 0
 80 -18 67 -10 67 6 c 0
 67 34 108 65 130 77 c 2
 144 85 l 1
 164 103 186 156 205 231 c 0
 282.191 535.701 482 704 667 704 c 0
 738 704 801 668 801 603 c 0
 801 594 800 584 797 574 c 0
 788 534 720 492 675 492 c 0
 654 492 642 501 642 516 c 0
EndSplineSet
EndChar
StartChar: M
Encoding: 77 77 14
Width: 1639
Flags: HMW
Back
744.17 292.37 m 0
 746.597 287.944 749.069 283.551 751.587 279.19 c 0
 779.338 231.124 812.579 187.053 850.775 147.603 c 1
 799.547 111.735 l 1
 779.605 34.6328 l 1
 767.942 34.6416 757.973 37.625 751.446 43.8311 c 0
 701.407 91.4111 658.748 145.673 624.14 205.608 c 0
 621.45 210.266 618.811 214.957 616.22 219.682 c 0
 571.889 300.527 531.303 383.793 494.544 469.294 c 1
 482.344 418.934 467.102 368.516 448.913 318.543 c 0
 438.464 289.834 427.058 261.279 414.733 232.965 c 0
 395.92 189.744 351.814 83.042 298.85 16.2217 c 0
 258.901 -34.1768 219.375 -57.9648 180.841 -55.5215 c 0
 161.252 -54.2793 142.56 -50.4619 125.1 -44.1064 c 0
 117.858 -41.4707 110.828 -38.3975 104.036 -34.8809 c 0
 97.9277 -31.7178 85.6572 -25.0068 75.1699 -14.9131 c 0
 57.6006 1.99707 59.251 47.3701 78.8516 86.3652 c 0
 98.4531 125.36 128.621 143.284 146.189 126.374 c 0
 152.679 120.128 162.282 115.258 164.18 114.275 c 0
 169.282 111.633 174.632 109.289 180.195 107.265 c 0
 193.609 102.383 208.268 99.3613 223.688 98.3838 c 0
 238.277 97.459 249.991 105.302 263.411 122.231 c 0
 291.95 158.236 322.344 229.372 343.983 279.087 c 0
 353.817 301.681 362.839 324.28 371.064 346.878 c 0
 405.201 440.669 425.876 534.56 432.708 628.685 c 1
 433.128 628.685 l 1
 433.004 649.583 454.369 676.125 485.733 692.008 c 0
 521.853 710.298 557.619 707.56 565.572 685.894 c 0
 615.73 549.249 675.376 417.832 744.17 292.37 c 0
1421.04 215.868 m 0
 1420.17 175.11 1424.23 135.486 1433.09 97.8574 c 0
 1433.84 94.6738 1434.82 92.4531 1436.01 90.3945 c 0
 1439.29 84.7119 1445.42 80.7598 1450.18 79.6387 c 1
 1488.88 99.1602 l 2
 1528.53 119.163 1566.54 117.399 1573.73 95.2197 c 0
 1580.92 73.041 1554.58 38.8047 1514.93 18.8008 c 2
 1468.83 -4.45703 l 2
 1460.01 -8.90527 1419.13 -29.7422 1373.08 -28.876 c 0
 1362.89 -28.6846 1317.6 -27.7334 1296.05 9.58789 c 0
 1292.96 14.9463 1290.38 20.7139 1288.43 29.001 c 0
 1278.6 70.6826 1274.09 114.634 1275.06 160.144 c 0
 1277.65 282.104 1288.98 405.836 1308.97 530.519 c 1
 1420.19 627.019 l 1
 1467.98 659.246 l 1
 1467.97 657.326 1467.78 655.311 1467.38 653.204 c 0
 1439.62 506.061 1424.11 359.775 1421.04 215.868 c 0
999.451 332.496 m 0
 1139.81 449.025 1277.62 568.608 1412.74 691.096 c 0
 1438.74 714.666 1463.18 705.088 1467.29 669.718 c 0
 1471.41 634.347 1453.64 586.512 1427.65 562.942 c 0
 1290.88 438.953 1151.45 317.978 1009.53 200.147 c 0
 941.847 143.958 871.834 91.1582 799.835 41.9668 c 0
 773.513 23.9824 752.021 40.6436 751.862 79.1553 c 0
 751.703 117.667 772.938 163.519 799.26 181.503 c 0
 868.27 228.651 935.128 279.093 999.451 332.496 c 0
EndSplineSet
Fore
63 24 m 0
 63 75 99 133 131 133 c 0
 146 133 168 98 226 98 c 0
 240 98 251 106 263 122 c 0
 294 161 344.821 274.064 371 347 c 0
 404.769 441.083 426 535 433 629 c 0
 433 667 493 704 533 704 c 0
 548 704 561 699 566 686 c 0
 616 549 675 418 744 292 c 2
 752 279 l 2
 770 248 790 218 813 191 c 1
 877 235 939 283 999 332 c 2
 1413 691 l 2
 1422 700 1432 704 1440 704 c 0
 1457 704 1468 687 1468 659 c 0
 1468 647 1421 428 1421 207 c 0
 1421 155 1430 101 1436 90 c 0
 1439 85 1445 81 1450 80 c 1
 1489 99 l 2
 1507 108 1525 113 1540 113 c 0
 1558 113 1575 106 1575 87 c 0
 1575 66 1550 37 1515 19 c 2
 1469 -4 l 2
 1445 -16 1407 -28 1372 -28 c 0
 1334 -28 1299 -14 1288 29 c 0
 1279 67 1275 107 1275 148 c 0
 1275 208 1282 330 1297 450 c 1
 1010 200 l 2
 942 144 872 91 800 42 c 0
 793 37 786 35 780 35 c 0
 768 35 758 38 751 44 c 0
 701 91 659 146 624 206 c 2
 616 220 l 2
 572 301 531 384 495 469 c 1
 452 293 358 91 299 16 c 0
 261 -31 224 -56 180 -56 c 0
 138 -56 94 -33 75 -15 c 0
 67 -7 63 7 63 24 c 0
EndSplineSet
EndChar
StartChar: N
Encoding: 78 78 15
Width: 1126
Flags: HMW
Back
89.9404 114.062 m 0
 94.8145 111.598 99.9004 109.398 105.175 107.479 c 0
 118.935 102.471 133.968 99.3789 149.778 98.3848 c 0
 177.383 96.6504 189.255 114.299 204.832 149.634 c 0
 212.183 166.309 220.094 187.439 228.496 210.345 c 0
 228.751 211.039 229.512 213.122 229.765 213.817 c 0
 286.927 370.913 309.723 511.31 315.081 628.685 c 1
 406.73 628.685 l 1
 394.746 483.173 361.338 333.087 307.613 185.482 c 0
 307.31 184.649 306.396 182.147 306.091 181.314 c 0
 297.496 157.882 287.613 130.799 275.007 102.199 c 0
 219.72 -23.2178 158.811 -58.7812 106.958 -55.5225 c 0
 86.9678 -54.2656 67.8936 -50.376 50.0791 -43.8926 c 0
 43.252 -41.4072 36.6094 -38.54 30.1729 -35.2861 c 0
 23.8623 -32.0957 11.1777 -25.332 0.326172 -15.0635 c 0
 -17.3379 1.65332 -15.8379 46.9375 3.67578 86.0156 c 0
 23.1904 125.094 53.3652 143.242 71.0303 126.525 c 0
 77.8584 120.064 87.9473 115.069 89.9404 114.062 c 0
1053.45 627.242 m 1
 1053.45 627.242 1050.32 619.659 1049.88 618.726 c 0
 1047.75 614.21 1041.26 600.218 1030.83 571.551 c 0
 1019.22 539.665 1007.3 502.133 997.096 469.854 c 0
 949.766 320.124 907.827 170.128 871.342 20.1055 c 1
 869.107 24.0742 l 1
 785.622 24.0742 l 1
 823.252 178 866.388 331.925 914.934 485.499 c 0
 925.208 518.003 938.178 559.22 952.979 599.886 c 0
 958.389 614.746 969.59 644.927 982.889 673.148 c 0
 1004.95 719.976 1022.93 739.429 1027.73 744.64 c 0
 1108.2 831.962 1210.35 840.377 1255.74 840.377 c 0
 1279.66 840.377 1290.15 805.882 1279.15 763.377 c 0
 1268.16 720.873 1239.83 686.377 1215.91 686.377 c 0
 1137.64 686.376 1081.8 658.003 1053.45 627.242 c 1
595.279 407.941 m 0
 629.371 348.893 664.795 290.756 701.535 233.563 c 0
 746.744 163.188 800.17 99.1328 860.986 42.3174 c 0
 878.189 26.2471 865.578 -5.75391 832.838 -29.1133 c 0
 800.098 -52.4736 759.566 -58.3887 742.363 -42.3184 c 0
 678.467 17.375 622.521 84.4883 575.236 158.096 c 0
 538.098 215.91 502.289 274.676 467.831 334.359 c 0
 414.591 426.573 364.571 520.979 317.837 617.462 c 0
 307.858 638.061 328.664 670.592 364.276 690.075 c 0
 399.889 709.559 436.89 708.654 446.868 688.055 c 0
 493.112 592.584 542.605 499.174 595.279 407.941 c 0
EndSplineSet
Fore
315 629 m 0
 315 664 371 704 414 704 c 0
 429 704 442 699 447 688 c 0
 523 530 609 377 702 234 c 0
 732 186 767 141 805 99 c 1
 852 281 933.349 567.835 983 673 c 0
 1005.16 719.927 1023 739 1028 745 c 0
 1108 832 1210 840 1256 840 c 0
 1273 840 1284 822 1284 795 c 0
 1284 743 1246 686 1216 686 c 0
 1138 686 1082 658 1053 627 c 1
 1041 596 1037 597 997 470 c 0
 950 320 908 170 871 20 c 1
 869 24 l 1
 869 -11 813 -51 770 -51 c 0
 759 -51 749 -48 742 -42 c 0
 656 38 596 113 468 334 c 2
 387 480 l 1
 358 319 309.955 181.02 275 102 c 0
 221.931 -17.9696 164 -56 113 -56 c 0
 85 -56 32 -45 0 -15 c 0
 -8 -7 -12 7 -12 24 c 0
 -12 75 24 133 56 133 c 0
 71 133 92 98 154 98 c 0
 182 98 194.904 117.035 230 214 c 0
 286.845 371.056 310 511 315 629 c 0
EndSplineSet
EndChar
StartChar: O
Encoding: 79 79 16
Width: 1086
Flags: HMW
Back
376.529 575.622 m 0
 306.055 534.934 260.472 461.317 244.497 397.422 c 0
 224.741 318.396 242.745 258.642 265.323 219.535 c 0
 313.593 135.93 412.793 89.8311 523.169 89.8311 c 0
 584.08 89.8311 671.243 103.001 749.082 147.941 c 0
 820.798 189.347 868.91 249.77 887.172 322.818 c 0
 903.673 388.822 895.466 451.625 867.62 499.855 c 0
 844.532 539.845 790.841 596.109 694.072 596.109 c 0
 685.061 596.109 669.011 595.235 651.442 589.671 c 0
 640.451 586.189 631.418 581.841 623.306 577.156 c 0
 594.577 560.57 555.988 525.379 526.499 469.661 c 0
 510.884 440.159 468.062 412.436 430.915 407.779 c 0
 393.768 403.122 376.292 423.287 391.906 452.789 c 0
 429.494 523.806 492.68 597.712 581.748 649.136 c 0
 609.296 665.041 638.888 678.321 668.36 687.656 c 0
 700.056 697.694 734.646 704.326 770.941 704.326 c 0
 886.49 704.326 966.461 651.883 1007.58 580.661 c 0
 1035.07 533.049 1055.09 459.517 1031 363.123 c 0
 1002.21 247.961 912.475 146.304 790.64 75.9619 c 0
 670.996 6.88574 543.966 -18.3857 446.301 -18.3857 c 0
 296.333 -18.3857 180.354 43.4824 125.363 138.729 c 0
 91.042 198.176 79.4297 272.145 100.673 357.117 c 0
 128.568 468.696 214.369 577.971 334.972 647.602 c 0
 383.492 675.615 428.595 691.901 465.729 701.257 c 0
 505.087 711.173 530.019 696.354 521.38 668.181 c 0
 512.741 640.007 473.786 609.094 434.427 599.178 c 0
 417.924 595.021 397.979 588.006 376.529 575.622 c 0
EndSplineSet
Fore
1042 447 m 0
 1042 186 736 -18 446 -18 c 0
 239 -18 90 101 90 274 c 0
 90 457 254 648 466 701 c 0
 474 703 482 704 489 704 c 0
 510 704 523 695 523 679 c 0
 523 647 474.942 609.235 434 599 c 0
 322 571 236 451 236 332 c 0
 236 187 363 90 523 90 c 0
 693 90 896 186 896 390 c 0
 896 506 815 596 694 596 c 0
 594 596 536 487 526 470 c 0
 511 441 463 407 421 407 c 0
 399 407 386 417 386 433 c 0
 386 439 388 445 392 453 c 0
 464 590 619 704 771 704 c 0
 936 704 1042 595 1042 447 c 0
EndSplineSet
EndChar
StartChar: P
Encoding: 80 80 17
Width: 995
Flags: HMW
Back
333.95 286.443 m 0
 360.59 393.002 374.959 499.504 376.653 603.692 c 0
 377.069 629.246 410.108 662.534 450.402 677.997 c 0
 490.695 693.46 523.061 685.27 522.645 659.716 c 0
 520.873 550.754 505.859 439.085 477.774 326.748 c 0
 449.69 214.41 408.725 102.146 355.429 -8.02832 c 0
 341.255 -37.3291 299.137 -65.8076 261.416 -71.5967 c 0
 223.696 -77.3848 204.586 -58.3008 218.76 -29 c 0
 268.574 73.9756 307.311 179.883 333.95 286.443 c 0
208.567 549.498 m 0
 201.397 545.358 192.622 535.803 186.922 513.004 c 0
 179.992 485.285 142.152 453.761 102.456 442.637 c 0
 62.7607 431.512 36.168 444.98 43.0977 472.699 c 0
 49.9365 500.051 72.5957 566.967 167.01 621.477 c 0
 194.054 637.091 218.495 646.485 231.244 651.076 c 0
 323.872 684.437 430.883 685.812 488.083 685.812 c 0
 522.342 685.812 532.928 661.572 511.712 631.704 c 0
 490.496 601.837 445.474 577.597 411.215 577.596 c 0
 324.269 577.596 262.364 570.177 224.278 556.46 c 0
 216.519 553.666 211.418 551.144 208.567 549.498 c 0
800.769 362.426 m 0
 815.785 371.096 826.831 380.252 836.556 392.604 c 0
 845.779 404.319 855.309 421.284 861.061 444.295 c 0
 866.328 465.365 867.084 487.923 855.493 507.998 c 0
 823.925 562.677 714.463 577.596 568.758 577.596 c 2
 411.215 577.596 l 2
 376.956 577.597 366.371 601.837 387.587 631.704 c 0
 408.803 661.572 453.825 685.812 488.083 685.812 c 2
 645.626 685.812 l 2
 770.458 685.812 943.668 678.499 995.453 588.805 c 0
 1009.7 564.123 1016.38 530.56 1004.89 484.601 c 0
 996.323 450.352 980.354 417.236 955.255 385.358 c 0
 917.011 336.78 867.484 304.972 842.325 290.446 c 0
 718.583 219.003 570.176 205.913 475.837 205.913 c 0
 441.578 205.913 430.993 230.153 452.209 260.021 c 0
 473.424 289.889 518.446 314.129 552.705 314.129 c 0
 671.453 314.129 757.341 337.354 800.769 362.426 c 0
EndSplineSet
Fore
214 -47 m 0
 214 -21 363 222 376 577 c 1
 195 572 194 540 187 513 c 0
 178 476 118 439 77 439 c 0
 55 439 42 448 42 464 c 0
 42 500 92 601 231 651 c 0
 324 684 430 686 487 686 c 2
 646 686 l 2
 769 686 1011 682 1011 528 c 0
 1011 515 1009 500 1005 485 c 0
 966 330 771 206 476 206 c 0
 462 206 452 210 446 217 c 1
 419 133 387 57 355 -8 c 0
 341 -39 291 -73 249 -73 c 0
 227 -73 214 -63 214 -47 c 0
865 471 m 0
 865 535 802 578 569 578 c 2
 519 578 l 1
 511 469 490 367 464 273 c 1
 487 297 524 314 553 314 c 0
 592 314 777.694 318.243 837 393 c 0
 848.938 408.049 865 440 865 471 c 0
EndSplineSet
EndChar
StartChar: Q
Encoding: 81 81 18
Width: 1137
Flags: HMW
Back
603.764 103.318 m 0
 650.108 117.882 694.905 136.943 732.413 158.6 c 0
 802.64 199.145 853.858 251.494 871.689 322.818 c 0
 889.041 392.223 873.162 444.681 853.331 479.029 c 0
 809.686 554.625 718.453 596.11 618.186 596.11 c 0
 536.593 596.11 462.316 573.774 410.717 543.983 c 0
 351.5 509.794 312.399 461.021 296.937 399.167 c 0
 287.241 360.386 292.257 324.971 309.235 295.563 c 0
 340.794 240.903 410.562 211.231 484.38 211.231 c 0
 539.052 211.231 594.299 215.718 649.495 224.486 c 0
 687.321 230.496 706.75 211.629 692.861 182.372 c 0
 678.973 153.115 637 124.493 599.174 118.483 c 0
 534.042 108.136 469.963 103.016 407.512 103.016 c 0
 296.548 103.016 208.482 146.849 169.275 214.757 c 0
 146.779 253.722 138.938 302.168 153.112 358.862 c 0
 178.982 462.344 259.528 552.666 369.16 615.963 c 0
 482.232 681.246 602.338 704.326 695.054 704.326 c 0
 855.402 704.326 952.025 631.311 993.291 559.836 c 0
 1024.17 506.35 1034.7 439.862 1015.51 363.123 c 0
 986.513 247.12 888.73 152.877 773.971 86.6201 c 0
 712.447 51.0986 648.255 24.6299 586.281 5.15527 c 0
 461.812 -33.958 337.748 -54.1084 219.663 -54.1084 c 0
 185.404 -54.1074 174.819 -29.8672 196.035 0 c 0
 217.251 29.8682 262.273 54.1084 296.532 54.1084 c 0
 398.524 54.1074 502.188 71.3994 603.764 103.318 c 0
871.916 -43.1982 m 0
 880.078 -43.1982 895.39 -42.7598 912.283 -38.75 c 0
 916.307 -37.7949 925.727 -35.2314 930.445 -32.5078 c 0
 930.449 -32.5049 929.88 -32.9346 929.77 -33.0645 c 1
 930.203 -32.5527 933.353 -28.6328 935.483 -20.1113 c 0
 942.399 7.55176 980.164 39.0127 1019.78 50.1143 c 0
 1059.4 61.2168 1085.94 47.7754 1079.02 20.1123 c 0
 1073.71 -1.11621 1062.65 -23.4287 1043.82 -45.7021 c 0
 1018.08 -76.1543 987.783 -95.1855 971.919 -104.344 c 0
 937.307 -124.327 904.43 -135.096 877.931 -141.386 c 0
 848.558 -148.357 821.076 -151.198 795.202 -151.198 c 0
 581.71 -151.197 413.092 -53.999 219.74 -54 c 0
 185.55 -54 174.984 -29.8076 196.158 0 c 0
 217.331 29.8076 262.264 54 296.455 54 c 0
 509.946 54 678.565 -43.1982 871.916 -43.1982 c 0
EndSplineSet
Fore
185 -28 m 0
 185 5 245 54 297 54 c 0
 447 54 623.841 96.2734 732 159 c 0
 842.837 223.28 880 306 880 378 c 0
 880 509 765 596 618 596 c 0
 516 596 336 556 297 399 c 0
 294 386 292 373 292 361 c 0
 292 274 372 211 484 211 c 0
 591 211 645 226 663 226 c 0
 684 226 697 216 697 200 c 0
 697 167 647 126 599 118 c 0
 534 108 470 103 408 103 c 0
 266 103 146 177 146 303 c 0
 146 497 401 704 695 704 c 0
 889 704 1025 596 1025 438 c 0
 1025 265 869 95 589 6 c 1
 683 -18 774 -43 872 -43 c 0
 895 -43 920 -38 930 -33 c 1
 933 -28 945 29 1020 50 c 0
 1029 53 1038 54 1046 54 c 0
 1067 54 1080 45 1080 28 c 0
 1080 26 1080 23 1079 20 c 0
 1054 -79 920 -151 795 -151 c 0
 585 -151 418 -57 229 -54 c 0
 220 -54 l 0
 197 -54 185 -44 185 -28 c 0
EndSplineSet
EndChar
StartChar: R
Encoding: 82 82 19
Width: 1212
Flags: HMW
Back
340.729 313.561 m 0
 365.068 410.917 377.188 508.241 376.649 603.053 c 0
 376.506 628.389 409.093 661.788 449.389 677.604 c 0
 489.685 693.42 522.505 685.692 522.648 660.356 c 0
 523.215 560.418 510.468 457.521 484.554 353.866 c 0
 458.64 250.21 419.767 146.606 368.502 45.2266 c 0
 353.633 15.8232 311.17 -12.2979 273.718 -17.5439 c 0
 236.265 -22.79 217.937 -3.18457 232.805 26.2188 c 0
 280.019 119.587 316.39 216.204 340.729 313.561 c 0
208.567 549.498 m 0
 201.397 545.358 192.622 535.803 186.922 513.004 c 0
 179.992 485.285 142.152 453.761 102.456 442.637 c 0
 62.7607 431.512 36.168 444.98 43.0977 472.699 c 0
 49.9365 500.051 72.5957 566.967 167.01 621.477 c 0
 194.054 637.091 218.495 646.485 231.244 651.076 c 0
 323.872 684.437 430.883 685.812 488.083 685.812 c 0
 522.342 685.812 532.928 661.572 511.712 631.704 c 0
 490.496 601.837 445.474 577.597 411.215 577.596 c 0
 324.269 577.596 262.364 570.177 224.278 556.46 c 0
 216.519 553.666 211.418 551.144 208.567 549.498 c 0
817.246 419.242 m 0
 826.159 424.388 838.246 432.431 848.181 452.672 c 0
 851.232 458.891 854.095 466.405 856.283 475.159 c 0
 860.272 491.116 861.251 508.431 852.475 523.632 c 0
 818.62 582.27 645.476 577.596 539.376 577.596 c 2
 411.215 577.596 l 2
 376.956 577.597 366.371 601.837 387.587 631.704 c 0
 408.803 661.572 453.825 685.812 488.083 685.812 c 2
 616.244 685.812 l 2
 735.973 685.812 941.17 693.23 992.435 604.438 c 0
 1004.56 583.44 1009.91 554.66 1000.11 515.465 c 0
 996.526 501.142 991.424 487.035 984.542 473.014 c 0
 950.546 403.746 884.755 362.245 858.804 347.263 c 0
 844.815 339.187 846.076 340.183 842.86 338.502 c 0
 733.93 281.564 609.619 274.501 540.495 274.501 c 0
 506.236 274.501 495.651 298.741 516.866 328.609 c 0
 538.082 358.477 583.105 382.717 617.363 382.717 c 0
 685.188 382.717 765.49 392.074 812.831 416.818 c 0
 813.273 417.05 761.292 386.937 817.246 419.242 c 0
945.88 89.8311 m 0
 982.221 89.8311 1024.13 98.5527 1065.78 122.596 c 0
 1071.25 125.754 1076.69 129.16 1082.13 132.854 c 0
 1118.77 157.723 1162.12 164.48 1178.89 147.938 c 0
 1195.67 131.396 1179.54 97.7881 1142.91 72.9199 c 0
 1131.32 65.0566 1119.43 57.6025 1107.33 50.6162 c 0
 1023.89 2.4375 940.109 -18.3857 869.011 -18.3857 c 0
 854.246 -18.3857 842.109 -16.2686 831.352 -13.1328 c 0
 713.767 21.1436 636.041 247.455 547.809 273.175 c 0
 543.849 274.329 541.006 274.501 540.495 274.501 c 0
 506.236 274.501 495.651 298.741 516.866 328.609 c 0
 538.082 358.477 583.104 382.717 617.363 382.717 c 0
 637.656 382.717 648.396 379.396 655.022 377.464 c 0
 772.173 343.314 850.334 116.876 938.565 91.1562 c 0
 942.526 90.002 945.368 89.8311 945.88 89.8311 c 0
EndSplineSet
Fore
754 303 m 1
 813 234 890 90 946 90 c 0
 1057 90 1087 157 1151 157 c 0
 1170 157 1186 149 1186 131 c 0
 1186 114 1169.91 91.1273 1143 73 c 0
 1045.69 7.46008 948 -18 869 -18 c 0
 720 -18 647 244 548 273 c 0
 544 274 541 275 540 275 c 0
 518 275 506 285 506 300 c 0
 506 333 566 383 617 383 c 0
 685 383 765 392 813 417 c 1
 791 404 l 1
 791 404 797 408 817 419 c 0
 846 436 859 469 859 495 c 0
 859 545 818 578 586 578 c 0
 570 578 554 578 539 578 c 2
 520 578 l 1
 506 366 436 179 369 45 c 0
 353 15 303 -18 262 -18 c 0
 240 -18 228 -8 228 7 c 0
 228 13 229 19 233 26 c 0
 331 220 373 410 376 577 c 1
 195 572 194 539 187 513 c 0
 178 476 118 439 77 439 c 0
 55 439 42 448 42 464 c 0
 42 500 92 601 231 651 c 0
 324 684 430 686 488 686 c 2
 616 686 l 2
 633 686 652 686 672 686 c 0
 878 686 1005 660 1005 554 c 0
 1005 475 936 357 754 303 c 1
EndSplineSet
EndChar
StartChar: S
Encoding: 83 83 20
Width: 850
Flags: HMW
Back
187.594 197.048 m 1
 187.513 197.001 204.179 209.485 204.179 209.484 c 0
 201.135 205.383 199.436 198.965 199.082 192.98 c 0
 198.343 180.472 203.222 169.985 206.12 164.965 c 0
 210.856 156.76 217.923 149.459 226.045 144.256 c 0
 298.398 97.9004 374.13 89.8311 420.816 89.8311 c 0
 503.193 89.8311 566.28 100.992 601.748 115.852 c 0
 603.708 116.673 600.151 114.981 606.896 118.124 c 0
 612.423 120.699 597.904 113.343 611.237 120.255 c 0
 611.393 120.336 560.997 91.1377 614.819 122.212 c 0
 630.844 131.464 636.984 145.69 639.863 152.603 c 0
 641.141 155.67 642.885 159.989 644.802 167.657 c 0
 652.03 196.571 646.654 217.294 637.658 232.875 c 0
 620.104 263.278 573.126 300.081 437.89 320.224 c 0
 374.562 329.655 291.647 353.59 257.642 412.489 c 0
 240.496 442.186 239.766 474.631 247.516 505.632 c 0
 261.699 562.367 306.585 611.225 366.601 645.875 c 0
 389.851 659.298 416.965 671.554 449.164 681.475 c 0
 482.712 691.812 538.173 704.326 611.386 704.326 c 0
 666.355 704.326 719.139 698.939 769.237 688.477 c 0
 795.889 682.911 819.714 668.978 833.756 644.656 c 0
 845.524 624.272 849.396 598.844 841.912 568.907 c 0
 834.982 541.188 797.142 509.664 757.446 498.539 c 0
 717.75 487.415 691.158 500.883 698.088 528.602 c 0
 701.062 540.504 699.621 553.76 693.796 563.85 c 0
 686.637 576.249 675.803 581.045 668.643 582.541 c 0
 625.168 591.62 580.166 596.109 534.517 596.109 c 0
 487.322 596.109 451.907 589.539 430.295 582.88 c 0
 418.978 579.393 411.556 575.857 408.158 573.896 c 0
 402.983 570.908 396.058 564.808 391.34 545.938 c 0
 386.325 525.875 388.706 508.702 397.602 493.296 c 0
 417.384 459.032 468.646 436.727 532.808 427.171 c 0
 622.947 413.746 736.014 385.743 777.618 313.682 c 0
 797.029 280.06 797.408 243.091 788.626 207.963 c 0
 787.036 201.605 784.015 191.06 779.179 179.452 c 0
 757.385 127.131 712.982 82.9141 656.377 50.2324 c 0
 642.921 42.4639 643.579 43.1357 640.344 41.458 c 0
 627.012 34.5459 627.539 35.0781 624.318 33.5781 c 0
 611.191 27.4609 611.584 27.874 608.395 26.5381 c 0
 513.883 -13.0596 409.318 -18.3848 343.948 -18.3848 c 0
 228.193 -18.3848 148.452 17.5615 101.475 47.6592 c 0
 86.2236 57.4297 74.4424 69.8135 66.1602 84.1582 c 0
 56.9395 100.129 51.9434 118.482 53.1885 139.552 c 0
 54.3135 158.575 60.7578 183.542 82.2197 212.468 c 0
 107.632 246.718 138.951 264.937 146.036 269.027 c 0
 153.396 273.276 190.752 294.191 231.016 294.191 c 0
 265.274 294.191 275.86 269.951 254.645 240.084 c 0
 233.43 210.216 188.407 185.976 154.148 185.976 c 1
 156.932 185.976 173.47 188.894 187.594 197.048 c 1
EndSplineSet
Fore
53 132 m 0
 53 215 149 294 231 294 c 0
 253 294 266 284 266 269 c 0
 266 240 229 210 199 197 c 1
 199 195 199 193 199 190 c 0
 199 176 206 157 226 144 c 0
 298 98 374 90 421 90 c 0
 515 90 579 103 611 120 c 1
 590 108 l 1
 590 108 595.969 111.054 615 122 c 0
 635.966 134.059 648 163 648 191 c 0
 648 243 607.927 294.511 438 320 c 0
 298 341 242 403 242 471 c 0
 242 564 358 704 611 704 c 0
 666 704 719 699 769 688 c 0
 812 680 846 647 846 598 c 0
 846 525 768 495 732 495 c 0
 710 495 697 504 697 520 c 0
 697 528 700 531 700 541 c 0
 700 561 687 579 669 583 c 0
 625 592 580 596 535 596 c 0
 473 596 427 585 408 574 c 0
 397 568 389 548 389 527 c 0
 389 467 461 438 533 427 c 0
 633.937 411.579 794 375 794 250 c 0
 794 160 703 -18 344 -18 c 0
 228 -18 148.021 18.0323 101 48 c 0
 68.0145 69.0227 53 100 53 132 c 0
EndSplineSet
EndChar
StartChar: T
Encoding: 84 84 21
Width: 814
Flags: HMW
Back
417.063 155.705 m 2
 514.981 547.379 l 2
 521.994 575.429 562.39 609.309 605.15 623.003 c 0
 647.911 636.698 676.925 625.049 669.912 596.999 c 2
 571.994 205.326 l 2
 554.809 136.584 527.404 67.6768 489.962 0.327148 c 0
 473.008 -30.1699 426.883 -60.3203 387.006 -66.9717 c 0
 347.128 -73.623 328.524 -54.2695 345.479 -23.7725 c 0
 377.307 33.4785 401.674 94.1475 417.063 155.705 c 2
1062.52 627.496 m 1
 1060.83 626.521 1055.95 623.271 1054.26 622.295 c 0
 1042.57 615.541 990.398 586.015 920.997 576.021 c 0
 900.7 573.1 884.139 572.518 872.515 572.518 c 2
 289.661 572.518 l 2
 281.904 572.518 276.111 571.859 273.711 571.569 c 0
 256.011 569.436 245.696 564.633 241.677 562.312 c 0
 228.122 554.486 219.291 536.006 217.155 531.265 c 0
 203.733 501.462 159.401 469.743 118.2 460.465 c 0
 77 451.186 54.4551 467.844 67.877 497.646 c 0
 90.667 548.25 136.704 597.354 200.26 634.047 c 0
 250.357 662.971 301.093 678.178 344.354 683.394 c 0
 351.868 684.3 364.954 685.612 380.469 685.612 c 2
 963.321 685.612 l 2
 974.945 685.612 983.572 686.737 987.077 687.242 c 0
 1004.1 689.693 1012.8 694.001 1012.85 694.029 c 0
 1014.54 695.005 1019.42 698.256 1021.11 699.231 c 1
 1020.38 701.504 1023.35 705.177 1027.73 707.43 c 0
 1032.11 709.682 1036.26 709.666 1036.99 707.394 c 0
 1036.99 707.394 l 0
 1080.24 726.979 1117.5 723.15 1120.17 698.846 c 0
 1122.83 674.542 1089.9 638.92 1046.65 619.334 c 0
 1046.64 619.334 1046.64 619.334 1046.64 619.334 c 0
 1045.92 621.606 1048.89 625.279 1053.27 627.532 c 0
 1057.65 629.785 1061.8 629.769 1062.52 627.496 c 1
EndSplineSet
Fore
1120 696 m 0
 1120 646 994 573 873 573 c 2
 664 573 l 1
 572 205 l 2
 555 137 527 68 490 0 c 0
 471 -33 415 -68 372 -68 c 0
 351 -68 339 -59 339 -44 c 0
 339 -22 385 29 417 156 c 2
 515 547 l 2
 517.005 554.999 522 564 529 573 c 1
 290 573 l 2
 238 573 225 549 217 531 c 0
 200 494 140 458 97 458 c 0
 76 458 64 467 64 482 c 0
 64 486 65 492 68 498 c 0
 117 607 261 686 380 686 c 2
 963 686 l 2
 1004 686 1016 696 1021 699 c 1
 1020 703 1028 709 1034 709 c 0
 1035 709 1037 709 1037 707 c 1
 1056 716 1073 720 1087 720 c 0
 1114 720 1120 706 1120 696 c 0
EndSplineSet
EndChar
StartChar: U
Encoding: 85 85 22
Width: 863
Flags: HMW
Back
370.551 50.7812 m 0
 326.397 25.2891 269.705 -1.88672 212.271 -13.1465 c 0
 208.771 -13.833 202.553 -14.9971 194.995 -16.0283 c 0
 191.566 -16.4961 186.201 -17.2158 178.149 -17.791 c 0
 174.822 -18.0283 170.357 -18.3857 161.877 -18.3857 c 0
 136.332 -18.3857 72.5352 -14.4229 36.459 48.0645 c 0
 14.252 86.5264 2.9873 147.952 22.5713 226.285 c 0
 53.1562 348.627 155.327 522.53 148.952 573.87 c 0
 148.631 576.454 148.029 577.985 147.648 578.602 c 0
 147.606 578.669 150.191 577.807 150.188 577.808 c 0
 150.183 577.809 163.159 577.596 152.365 577.596 c 0
 113.679 577.596 84.7295 563.858 74.2129 558.344 c 0
 34.7998 537.676 -3.99609 538.401 -12.3867 559.963 c 0
 -20.7773 581.525 4.40039 615.799 43.8125 636.467 c 0
 111.79 672.114 176.472 685.812 229.233 685.812 c 0
 233.624 685.812 246.076 684.682 249.85 683.934 c 0
 270.348 679.867 268.94 676.873 287.608 659.408 c 1
 291.527 652.619 293.592 645.22 294.547 637.535 c 0
 304.356 558.531 197.137 389.554 166.396 266.59 c 0
 156.962 228.858 151.562 171.923 176.419 128.871 c 0
 194.403 97.7207 220.733 89.8311 238.745 89.8311 c 0
 247.227 89.8311 242.328 89.9004 244.056 90.0244 c 0
 252.106 90.5996 243.483 89.7725 249.529 90.5977 c 0
 255.954 91.4746 252.934 91.0977 255.269 91.5557 c 0
 272.656 94.9639 297.125 104.361 328.993 122.761 c 0
 494.913 218.555 717.137 468.444 752.914 611.552 c 0
 759.844 639.271 797.685 670.795 837.38 681.919 c 0
 877.075 693.043 903.668 679.575 896.738 651.856 c 0
 854.438 482.657 605.028 186.158 370.551 50.7812 c 0
748.39 208.429 m 0
 739.12 171.349 734.292 134.167 734.083 97.8535 c 0
 734.062 94.1602 734.957 90.8369 736.492 88.1768 c 0
 738.942 83.9346 742.484 82.1934 743.859 81.665 c 0
 747.358 80.3223 743.783 83.9971 727.74 75.9023 c 1
 773.839 99.1611 l 2
 813.488 119.165 851.503 117.399 858.693 95.2207 c 0
 865.884 73.041 839.541 38.8057 799.892 18.8018 c 2
 753.792 -4.45703 l 2
 699.15 -32.0254 655.668 -30.2129 630.635 -20.6045 c 0
 614.994 -14.6016 603.717 -5.07324 596.532 7.37012 c 0
 591.036 16.8906 588.01 28.1875 588.085 41.2119 c 0
 588.322 82.459 593.785 125.002 604.565 168.123 c 0
 642.245 318.846 692.617 469.461 755.235 618.44 c 0
 767.406 647.397 808.461 676.84 846.874 684.161 c 0
 885.288 691.482 906.587 673.924 894.416 644.967 c 0
 833.891 500.965 785.009 354.907 748.39 208.429 c 0
EndSplineSet
Fore
669 -27 m 0
 625 -27 588 -5 588 41 c 0
 588 115 613 206 628 255 c 1
 481 106 302 -18 162 -18 c 0
 42 -18 12 78 12 149 c 0
 12 290 149 497 149 569 c 0
 149 573 149 576 148 578 c 1
 83 576 67 543 21 543 c 0
 3 543 -14 550 -14 569 c 0
 -14 624 120 686 229 686 c 0
 267 686 271 675 288 659 c 1
 289 657 295 646 295 627 c 0
 295 528 158 331 158 205 c 0
 158 138 191 90 239 90 c 0
 343 90 616 337 719 528 c 2
 755 617 l 2
 763 646 816 683 858 686 c 2
 863 686 l 2
 885 686 898 676 898 660 c 0
 898 658 897 655 897 652 c 1
 890 627 879 598 864 568 c 0
 816 442 735 220 734 98 c 0
 734 90 738 85 742 83 c 1
 774 99 l 2
 792 108 810 113 825 113 c 0
 843 113 860 106 860 87 c 0
 860 66 835 37 800 19 c 2
 754 -4 l 2
 721 -21 692 -27 669 -27 c 0
EndSplineSet
EndChar
StartChar: V
Encoding: 86 86 23
Width: 912
Flags: HMW
Back
227.735 485.129 m 0
 215.914 505.604 170.528 582.879 92.8057 582.879 c 0
 60.0762 582.879 47.4922 605.891 64.7148 634.245 c 0
 81.9385 662.599 122.479 685.61 155.208 685.61 c 0
 266.031 685.61 324.523 611.813 355.183 558.712 c 0
 443.736 405.333 455.357 142.495 455.565 46.4014 c 1
 416.507 23.1748 385.363 7.0332 368.735 0 c 1
 322.114 -31.4404 l 1
 321.096 -29.1836 320.91 -27.4697 321.669 -26.7119 c 1
 319.054 -29.3271 338.188 293.82 227.735 485.129 c 0
828.481 459.134 m 0
 829.944 463.153 831.036 466.742 831.885 470.137 c 0
 832.084 470.937 831.561 468.146 831.568 468.271 c 0
 832.169 477.703 818.009 507.274 776.351 522.437 c 0
 760.335 528.266 741.702 531.505 721.858 531.505 c 0
 697.941 531.505 687.452 566 698.445 608.505 c 0
 709.438 651.009 737.772 685.505 761.689 685.505 c 0
 786.775 685.505 810.297 681.506 831.445 673.808 c 0
 887.804 653.295 931.908 603.812 926.489 518.691 c 0
 926.299 515.705 925.244 496.909 919.143 472.501 c 0
 915.599 458.325 911.258 444.338 906.33 430.799 c 0
 803.56 148.443 391.611 -61.3066 360.681 -74.3896 c 0
 334.736 -85.3633 317.288 -60.9424 321.734 -19.8789 c 0
 326.18 21.1836 350.845 63.417 376.789 74.3896 c 0
 482.171 118.962 777.441 318.904 828.481 459.134 c 0
EndSplineSet
Fore
694 576 m 0
 694 629 732 686 762 686 c 0
 860 686 927 628 927 532 c 0
 927 514 924 494 919 473 c 0
 845 175 409 -54 361 -74 c 0
 356 -76 352 -77 349 -77 c 0
 332 -77 321 -60 321 -32 c 0
 321 -25 321 -28 321 -20 c 0
 321 -15 321 -5 321 8 c 0
 321 341 230 583 93 583 c 0
 70 583 57 594 57 610 c 0
 57 646 112 686 155 686 c 0
 266 686 324.801 611.887 355 559 c 0
 426.529 433.731 448 236 454 115 c 1
 654 233 809 384 832 469 c 1
 831 482 804 532 722 532 c 0
 704 532 694 550 694 576 c 0
EndSplineSet
EndChar
StartChar: W
Encoding: 87 87 24
Width: 1417
Flags: HMW
Back
203.153 504.464 m 0
 170.293 561.38 130.382 582.879 91.8057 582.879 c 0
 59.0762 582.879 46.4922 605.891 63.7148 634.245 c 0
 80.9385 662.599 121.479 685.61 154.208 685.61 c 0
 202.554 685.61 276.195 672.278 330.601 578.046 c 0
 394.089 468.082 407.297 288.051 407.115 159.469 c 1
 470.526 223.109 530.337 289.546 586.15 358.257 c 0
 645.185 430.933 699.554 505.911 748.947 582.548 c 1
 767.995 582.548 l 1
 764.28 589.021 l 2
 762.359 592.348 760.908 594.836 759.451 597.322 c 0
 747.899 617.034 767.035 649.571 802.169 669.953 c 0
 837.302 690.334 875.191 690.879 886.745 671.167 c 0
 888.749 667.748 890.241 665.177 891.728 662.603 c 0
 948.979 563.439 995.369 457.155 1030.36 344.991 c 0
 1057.89 256.753 1078.28 165.149 1091.38 70.8438 c 1
 1055.34 36.5293 1026.1 11.3535 1011.54 0 c 2
 963.828 -32.1729 l 1
 951.782 75.9639 930.009 180.719 898.729 280.987 c 0
 873.952 360.402 843.285 436.774 806.951 509.61 c 1
 749.895 419.863 687.39 333.229 619.985 250.248 c 0
 528.74 137.918 428.922 32.7676 321.905 -64.1133 c 0
 295.902 -87.6533 271.478 -78.0352 267.385 -42.6455 c 0
 266.442 -34.498 266.659 -25.6914 267.869 -16.6738 c 0
 270.248 32.8486 299.458 337.659 203.153 504.464 c 0
1332.05 454.202 m 0
 1334.25 460.225 1335.85 465.507 1337.01 470.137 c 0
 1338.94 477.872 1332.82 491.677 1329.96 496.493 c 0
 1322.98 508.25 1310.26 519.764 1293.03 526.036 c 0
 1283.41 529.537 1272.42 531.505 1260.38 531.505 c 0
 1236.46 531.505 1225.97 566 1236.97 608.505 c 0
 1247.96 651.009 1276.29 685.505 1300.21 685.505 c 0
 1317.53 685.505 1333.57 682.706 1348.13 677.407 c 0
 1374.22 667.91 1395.7 650.704 1410.95 625.003 c 0
 1430.1 592.738 1441.47 541.317 1424.27 472.501 c 0
 1420.29 456.598 1415.41 440.994 1409.9 425.867 c 0
 1322.83 186.647 1029.4 -56.2129 1014.95 -67.4834 c 0
 988.691 -87.9521 965.854 -74.3311 963.972 -37.0801 c 0
 962.088 0.170898 981.869 47.0156 1008.12 67.4844 c 0
 1085.64 127.912 1285.86 327.29 1332.05 454.202 c 0
EndSplineSet
Fore
56 610 m 0
 56 646 111 686 154 686 c 0
 357 686 407 428 407 159 c 1
 534 287 651 430 749 583 c 1
 768 583 l 1
 759 597 l 2
 757 601 756 606 756 610 c 0
 756 646 811 686 854 686 c 0
 869 686 881 681 887 671 c 0
 969 530 1043 351 1082 133 c 1
 1234 279 1337 426 1337 474 c 0
 1337 492 1315 532 1260 532 c 0
 1243 532 1233 550 1233 576 c 0
 1233 629 1270 686 1300 686 c 0
 1379 686 1432 630 1432 538 c 0
 1432 296 1072 -23 1015 -67 c 0
 1007 -74 999 -77 992 -77 c 0
 981 -77 964 -68 964 -32 c 0
 947 120 906 311 807 510 c 1
 671 296 506 103 322 -64 c 0
 312 -73 303 -77 295 -77 c 0
 278 -77 267 -59 267 -32 c 0
 267 -26 274 46 274 136 c 0
 274 413 201 583 92 583 c 0
 69 583 56 594 56 610 c 0
EndSplineSet
EndChar
StartChar: X
Encoding: 88 88 25
Width: 988
Flags: HMW
Back
869.753 38.6582 m 0
 869.565 38.5498 871.854 39.7764 871.666 39.668 c 0
 860.862 33.4297 848.963 27.6953 833.901 22.0107 c 0
 801.608 9.82324 757.288 -1.56348 705.726 0.128906 c 0
 675.47 1.12207 625.033 2.63672 587.884 66.9814 c 0
 575.758 87.9844 567.887 111.738 562.932 135.995 c 2
 492.147 482.479 l 2
 487.979 502.885 481.31 522.388 472.207 538.153 c 0
 457.151 564.23 436.816 575.981 421.352 577.414 c 0
 421.309 577.418 449.875 577.596 417.455 577.596 c 0
 399.307 577.596 371.495 577.331 359.199 575.716 c 0
 355.356 575.211 368.761 576.843 386.532 587.104 c 1
 386.379 587.015 388.471 586.371 377.956 579.313 c 0
 341.153 554.609 297.965 548.185 281.555 564.973 c 0
 265.144 581.76 281.693 615.434 318.496 640.137 c 0
 318.541 640.167 315.905 642.3 344.976 659.083 c 0
 374.047 675.867 398.568 680.352 414.679 682.468 c 0
 436.336 685.312 465.924 685.812 494.323 685.812 c 0
 502.429 685.812 507.108 685.379 510.16 685.097 c 0
 539.247 682.4 582.291 670.707 612.167 618.96 c 0
 624.294 597.956 632.165 574.202 637.12 549.946 c 2
 707.903 203.462 l 2
 712.072 183.056 718.742 163.553 727.844 147.788 c 0
 746.305 115.813 765.582 108.835 782.595 108.345 c 0
 817.887 107.329 835.535 114.649 836.877 115.156 c 0
 836.879 115.156 834.453 114.155 830.108 111.647 c 1
 830.297 111.756 833.7 113.66 833.889 113.769 c 0
 833.889 113.77 836.737 115.336 836.738 115.337 c 0
 876.164 135.97 914.921 135.189 923.248 113.595 c 0
 931.576 92 906.337 57.7275 866.91 37.0947 c 0
 866.91 37.0938 869.754 38.6582 869.753 38.6582 c 0
86.125 37.6865 m 0
 79.5342 52.0391 78.2822 55.4775 79.3262 69.5957 c 0
 79.5146 72.1357 80.8145 80.0391 81.4883 82.7344 c 0
 86.2451 101.765 98.7705 120.302 112.194 135.582 c 0
 129.891 155.726 163.93 187.354 239.303 230.872 c 0
 408.088 328.32 700.637 440.192 851.074 527.049 c 0
 874.974 540.848 900.726 557.687 908.079 566.058 c 0
 908.082 566.061 907.046 564.599 906.622 562.901 c 1
 906.772 564.938 906.856 564.935 906.479 566.062 c 0
 906.354 566.438 906.632 566.092 905.85 567.447 c 0
 903.993 570.661 899.042 574.931 887.063 576.853 c 0
 885.288 577.138 881.812 577.597 877.575 577.597 c 0
 843.317 577.597 832.732 601.838 853.948 631.705 c 0
 875.165 661.573 920.188 685.813 954.445 685.812 c 0
 963.521 685.812 972.423 685.342 983.142 683.621 c 0
 1016.17 678.32 1036.54 664.312 1045.81 648.254 c 0
 1046.83 646.489 1049.36 640.878 1050.01 638.916 c 0
 1054.12 626.628 1053.98 625.966 1050.45 603.206 c 0
 1047.58 584.747 1033.16 565.639 1019.74 550.358 c 0
 1002.04 530.215 968.005 498.586 892.632 455.069 c 0
 723.848 357.621 431.299 245.748 280.86 158.893 c 0
 256.961 145.094 231.209 128.254 223.855 119.884 c 0
 223.852 119.88 224.888 121.341 225.312 123.039 c 1
 224.824 121.086 225.21 122.796 225.158 122.096 c 0
 225.058 120.744 225.073 120.613 226.085 118.493 c 0
 227.686 115.137 232.892 111.011 244.87 109.088 c 0
 246.646 108.804 250.122 108.345 254.358 108.345 c 0
 288.617 108.345 299.202 84.1045 277.986 54.2363 c 0
 256.771 24.3691 211.748 0.128906 177.489 0.128906 c 0
 168.413 0.128906 159.513 0.599609 148.793 2.32031 c 0
 115.766 7.62109 93.8867 20.7822 86.125 37.6865 c 0
EndSplineSet
Fore
925 105 m 0
 925 57 826 0 716 -0 c 0
 665 0 590 7 563 136 c 2
 533 282 l 1
 530 281 273 168 225 122 c 1
 227 118 236 108 254 108 c 0
 277 108 289 98 289 83 c 0
 289 50 229 0 177 0 c 0
 114 0 79 27 79 65 c 0
 79 175 357 295 516 367 c 1
 492 482 l 2
 481 538 453 574 421 577 c 1
 421 577 450 578 417 578 c 0
 405 578 388 577 374 577 c 1
 352 563 329 556 310 556 c 0
 291 556 275 563 275 581 c 0
 275 616 342 673 415 682 c 0
 436 685 466 686 494 686 c 0
 581 686 622 626 637 550 c 2
 661 432 l 1
 687 444 869 527 907 564 c 1
 906 574 889 578 878 578 c 0
 855 578 843 588 843 603 c 0
 843 636 903 686 954 686 c 0
 996 686 1053 672 1053 619 c 0
 1053 532 875 438 678 348 c 1
 708 203 l 2
 718 153 740 108 789 108 c 0
 850 108 847 130 890 130 c 0
 918 130 925 115 925 105 c 0
EndSplineSet
EndChar
StartChar: Y
Encoding: 89 89 26
Width: 912
Flags: HMW
Back
327.896 464.439 m 0
 274.161 557.512 214.419 582.88 168.063 582.88 c 0
 163.595 582.88 161.343 581.947 160.657 581.552 c 0
 160.239 581.311 159.45 580.839 157.927 579.465 c 0
 129.082 553.463 86.8857 541.534 63.7383 552.84 c 0
 40.5908 564.145 45.2139 594.423 74.0586 620.426 c 0
 87.4746 632.52 102.822 643.745 119.268 653.24 c 0
 128.912 658.809 175.544 685.61 230.465 685.61 c 0
 345.872 685.61 413.763 610.041 455.345 538.021 c 0
 535.569 399.068 564.154 186.662 573.312 77.0547 c 1
 528.739 41.9072 483.952 10.9082 442.27 -14.8291 c 1
 437.549 58.9111 415.354 312.961 327.896 464.439 c 0
217.038 -21.7695 m 0
 232.926 -27.5518 250.821 -30.6982 270.007 -30.6982 c 0
 347.377 -30.6982 739.897 209.503 828.981 454.26 c 0
 832.757 464.631 835.882 474.784 838.389 484.812 c 0
 841.438 497.009 832.007 510.574 831.447 511.427 c 0
 823.334 523.776 807.485 536.619 786.501 544.257 c 0
 771.711 549.64 754.48 552.663 736.027 552.663 c 0
 712.22 552.662 699.522 582.454 707.684 619.162 c 0
 715.845 655.87 741.79 685.662 765.598 685.662 c 0
 790.084 685.662 813.051 681.744 833.795 674.193 c 0
 874.746 659.288 895.637 634.915 906.446 618.459 c 0
 939.684 567.864 930.104 506.327 923.307 479.143 c 0
 918.796 461.097 913.282 443.297 906.943 425.883 c 0
 787.263 97.0625 343.744 -163.697 240.437 -163.697 c 0
 215.17 -163.698 191.428 -159.599 169.744 -151.706 c 0
 93.042 -123.787 69.5957 -60.0645 63.9658 -44.5684 c 0
 54.0674 -17.3242 64.8135 24.7529 87.9521 49.3545 c 0
 111.091 73.957 137.904 71.8125 147.802 44.5684 c 0
 162.474 4.1875 196.56 -14.3154 217.038 -21.7695 c 0
EndSplineSet
Fore
60 -22 m 0
 60 16 87 66 121 66 c 0
 132 66 142.965 58.9873 148 45 c 0
 166 -5 215 -31 270 -31 c 0
 297 -31 361 -2 437 46 c 1
 411 326 322 583 168 583 c 0
 162 583 160 581 158 579 c 0
 136 560 108 549 85 549 c 0
 63 549 49 559 49 576 c 0
 49 618 145 686 230 686 c 0
 346 686 413.683 609.818 455 538 c 0
 522.482 420.702 554 253 567 137 c 1
 689 234 807 360 838 485 c 2
 839 486 839 488 839 489 c 0
 839 511 807 553 736 553 c 0
 717 553 705 571 705 598 c 0
 705 642 737 686 766 686 c 0
 862 686 930 627 930 535 c 0
 930 496 918.855 458.053 907 426 c 0
 785.518 97.5481 344 -164 240 -164 c 0
 115 -164 60 -66 60 -22 c 0
EndSplineSet
EndChar
StartChar: Z
Encoding: 90 90 27
Width: 978
Flags: HMW
Back
787.62 570.6 m 2
 478.56 572.519 l 2
 448.988 572.519 427.57 568.7 413.77 565.345 c 0
 408.869 564.153 395.126 560.352 388.865 556.736 c 0
 388.095 556.291 389.259 557.094 389.232 557.068 c 0
 385.289 553.461 381.237 543.403 379.457 536.285 c 0
 372.445 508.236 332.05 474.356 289.288 460.661 c 0
 246.527 446.966 217.514 458.615 224.526 486.665 c 0
 232.387 518.107 251.629 552.131 287.681 585.119 c 0
 302.76 598.916 322.01 613.784 347.448 628.471 c 0
 388.28 652.046 427.483 664.875 458.223 672.349 c 0
 498.056 682.035 535.128 685.611 569.813 685.611 c 2
 878.874 683.693 l 2
 903.481 683.692 927.965 684.304 952.743 685.518 c 0
 989.479 687.318 1000.64 663.488 977.659 632.326 c 0
 954.678 601.164 906.211 574.412 869.476 572.611 c 0
 842.065 571.268 814.625 570.6 787.62 570.6 c 2
567.038 395.48 m 0
 668.226 471.504 765.681 553.675 858.628 641.503 c 0
 890.852 671.953 940.517 691.094 969.487 684.228 c 0
 998.457 677.361 995.815 647.076 963.592 616.626 c 0
 862.831 521.414 756.272 431.482 644.735 347.684 c 0
 492.812 233.543 336.47 125.722 176.405 24.7402 c 0
 135.694 -0.944336 90.6074 -7.3916 75.7646 10.3477 c 0
 60.9229 28.0859 81.917 63.3281 122.628 89.0117 c 0
 274.216 184.646 422.527 286.909 567.038 395.48 c 0
306.311 115.337 m 1
 752.035 113.423 l 2
 757.597 113.423 764.651 114.689 766.382 115.688 c 0
 775.502 120.954 786.648 136.712 792.044 146.36 c 0
 799.573 159.824 803.193 171.85 804.994 179.053 c 0
 812.007 207.103 852.402 240.982 895.163 254.678 c 0
 937.924 268.373 966.938 256.723 959.926 228.674 c 0
 955.051 209.175 947.25 189.634 936.358 170.156 c 0
 912.237 127.021 870.844 80.3525 807.798 43.9531 c 0
 757.889 15.1377 705.731 0.329102 660.917 0.328125 c 2
 216.463 2.25293 l 1
 105.383 0.338867 l 2
 69.5479 -0.275391 60.2354 24.5537 84.5967 55.7617 c 0
 108.959 86.9697 157.814 112.798 193.649 113.412 c 2
 306.311 115.337 l 1
700.859 338.616 m 0
 700.843 338.646 727.014 322.949 727.014 322.949 c 1
 713.415 323.932 642.771 324.081 586.298 324.081 c 2
 399.646 324.081 l 2
 369.679 324.081 354.135 345.361 364.947 371.581 c 0
 375.761 397.802 408.856 419.081 438.822 419.081 c 2
 625.475 419.082 l 2
 663.438 419.082 750.475 419.399 774.744 417.646 c 0
 791.078 416.466 802.28 411.72 808.58 400.808 c 0
 810.833 396.905 812.504 381.427 811.222 376.314 c 0
 804.712 350.353 774.119 326.302 742.935 322.63 c 0
 711.75 318.958 691.724 337.049 698.233 363.011 c 0
 698.233 363.012 700.86 338.615 700.859 338.616 c 0
EndSplineSet
Fore
812 387 m 0
 812 348 760 316 725 323 c 0
 710 324 661 324 613 324 c 1
 529 261 431 191 317 115 c 1
 752 113 l 2
 784 113 801 164 805 179 c 0
 815.374 217.902 883 260 928 260 c 0
 948 260 961 252 961 237 c 0
 961 234 961 231 960 229 c 1
 928 100 777 0 661 0 c 2
 216 2 l 1
 105 0 l 2
 104 0 104 0 103 0 c 0
 77 1 71 15 71 24 c 0
 71 37 83.2167 63.6566 123 89 c 0
 258 175 373 253 471 324 c 1
 400 324 l 2
 376 324 362 337 362 355 c 0
 362 382 397 419 439 419 c 2
 597 419 l 1
 671 476 731 527 781 571 c 1
 479 573 l 2
 433 573 400 563 389 557 c 1
 385 553 381 543 379 536 c 0
 370 497 302 455 257 455 c 0
 236 455 223 464 223 479 c 0
 223 481 224 484 225 487 c 0
 248 582 384 686 570 686 c 2
 879 684 l 2
 925 684 949 686 957 686 c 0
 976 686 990 677 990 662 c 0
 990 652 985 636 962 615 c 0
 907 563 833 497 736 419 c 1
 774 418 812 420 812 387 c 0
EndSplineSet
EndChar
